<svg width="465" height="503" viewBox="0 0 465 503" fill="none" xmlns="http://www.w3.org/2000/svg">
<path style="mix-blend-mode:multiply" d="M437.944 305.553C437.944 414.621 364.498 503 273.837 503C183.27 503 109.824 414.621 109.824 305.553C109.824 196.578 183.27 108.199 273.837 108.199C364.498 108.199 437.944 196.578 437.944 305.553Z" fill="url(#paint0_radial_1330_2727)"/>
<path style="mix-blend-mode:multiply" d="M397.43 305.553C397.43 414.621 323.984 503 233.417 503C142.756 503 69.3105 414.621 69.3105 305.553C69.3105 196.578 142.756 108.199 233.417 108.199C323.984 108.199 397.43 196.578 397.43 305.553Z" fill="url(#paint1_radial_1330_2727)"/>
<path d="M133.602 444.418C115.732 444.418 101.137 429.813 101.137 411.932V35.8557C101.137 17.974 115.732 3.36914 133.602 3.36914H283.02C300.89 3.36914 315.392 17.974 315.392 35.8557V411.932C315.392 429.813 300.89 444.418 283.02 444.418H133.602Z" fill="url(#paint2_linear_1330_2727)"/>
<g style="mix-blend-mode:multiply">
<path d="M101.324 415.115C101.605 417.268 101.979 420.451 103.663 424.383C105.253 428.316 108.154 432.903 113.019 437.022C115.545 438.988 118.446 440.861 121.907 442.171C125.369 443.576 129.392 444.418 133.602 444.418C133.602 444.106 133.602 443.95 133.602 443.95C129.392 443.857 125.556 443.108 122.094 441.703C118.726 440.393 115.826 438.614 113.393 436.648C108.622 432.622 105.721 428.035 104.131 424.196C102.447 420.358 102.166 417.175 101.792 415.115C101.729 412.993 101.698 411.932 101.698 411.932C101.698 411.932 101.511 411.932 101.137 411.932C101.137 411.932 101.199 412.993 101.324 415.115ZM101.137 411.932C101.511 411.932 101.698 411.932 101.698 411.932C101.698 286.542 101.698 161.183 101.698 35.8557C101.698 35.8557 101.511 35.8557 101.137 35.8557C101.137 161.183 101.137 286.542 101.137 411.932ZM101.137 35.8557C101.511 35.8557 101.698 35.8557 101.698 35.8557C101.698 35.8557 101.698 35.8245 101.698 35.7621C101.698 35.7621 101.511 35.7621 101.137 35.7621C101.137 35.8245 101.137 35.8557 101.137 35.8557ZM110.68 12.9185C104.692 18.8166 101.137 27.3362 101.137 35.7621C101.511 35.7621 101.698 35.7621 101.698 35.7621C101.605 27.4298 105.066 19.0975 111.054 13.1994C116.949 7.30123 125.276 3.83725 133.602 3.83725C133.602 3.83725 133.602 3.68121 133.602 3.36914C125.088 3.36914 116.668 6.83312 110.68 12.9185ZM133.602 3.36914C133.602 3.68121 133.602 3.83725 133.602 3.83725C183.377 3.83725 233.183 3.83725 283.02 3.83725C283.02 3.83725 283.02 3.68121 283.02 3.36914C233.183 3.36914 183.377 3.36914 133.602 3.36914ZM305.942 12.9185C299.954 6.83312 291.534 3.36914 283.02 3.36914C283.02 3.68121 283.02 3.83725 283.02 3.83725C291.347 3.83725 299.674 7.30123 305.568 13.1994C311.462 19.0975 314.924 27.4298 314.924 35.7621C314.924 35.7621 315.08 35.7621 315.392 35.7621C315.486 27.3362 311.93 18.8166 305.942 12.9185ZM315.392 35.7621C315.08 35.7621 314.924 35.7621 314.924 35.7621C314.924 35.8245 314.924 35.8557 314.924 35.8557C314.924 35.8557 315.08 35.8557 315.392 35.8557C315.392 35.8557 315.392 35.8245 315.392 35.7621ZM315.392 35.8557C315.08 35.8557 314.924 35.8557 314.924 35.8557C314.924 161.183 314.924 286.542 314.924 411.932C314.924 411.932 315.08 411.932 315.392 411.932C315.392 286.542 315.392 161.183 315.392 35.8557ZM305.942 434.869C311.93 428.877 315.486 420.451 315.392 411.932C315.08 411.932 314.924 411.932 314.924 411.932C314.924 420.358 311.462 428.69 305.568 434.495C299.674 440.486 291.347 443.95 283.02 443.95C283.02 443.95 283.02 444.106 283.02 444.418C291.534 444.418 299.954 440.954 305.942 434.869ZM283.02 444.418C283.02 444.106 283.02 443.95 283.02 443.95C283.02 443.95 233.214 443.95 133.602 443.95C133.602 443.95 133.602 444.106 133.602 444.418C233.214 444.418 283.02 444.418 283.02 444.418ZM101.792 415.115C102.166 417.175 102.447 420.358 104.131 424.196C105.721 428.035 108.622 432.622 113.393 436.648C115.826 438.614 118.726 440.393 122.094 441.703C125.556 443.108 129.392 443.857 133.602 443.95C133.602 443.763 133.602 443.576 133.602 443.389C129.486 443.389 125.65 442.546 122.282 441.235C118.913 439.925 116.107 438.239 113.674 436.273C108.996 432.248 106.095 427.847 104.598 424.009C102.914 420.17 102.634 417.081 102.353 415.021C102.228 412.962 102.166 411.932 102.166 411.932C101.979 411.932 101.823 411.932 101.698 411.932C101.698 411.932 101.729 412.993 101.792 415.115ZM101.698 411.932C101.823 411.932 101.979 411.932 102.166 411.932C102.166 286.542 102.166 161.183 102.166 35.8557C101.979 35.8557 101.823 35.8557 101.698 35.8557C101.698 161.183 101.698 286.542 101.698 411.932ZM101.698 35.8557C101.823 35.8557 101.979 35.8557 102.166 35.8557C102.166 35.8557 102.166 35.8245 102.166 35.7621C101.979 35.7621 101.823 35.7621 101.698 35.7621C101.698 35.8245 101.698 35.8557 101.698 35.8557ZM111.054 13.1994C105.066 19.0975 101.605 27.4298 101.698 35.7621C101.823 35.7621 101.979 35.7621 102.166 35.7621C102.166 27.5234 105.534 19.3784 111.428 13.5738C117.136 7.76934 125.369 4.30535 133.602 4.39897C133.602 4.21173 133.602 4.02449 133.602 3.83725C125.276 3.83725 116.949 7.30123 111.054 13.1994ZM133.602 3.83725C133.602 4.02449 133.602 4.21173 133.602 4.39897C183.377 4.39897 233.183 4.39897 283.02 4.39897C283.02 4.21173 283.02 4.02449 283.02 3.83725C233.183 3.83725 183.377 3.83725 133.602 3.83725ZM305.568 13.1994C299.674 7.30123 291.347 3.83725 283.02 3.83725C283.02 4.02449 283.02 4.21173 283.02 4.39897C291.253 4.30535 299.393 7.76934 305.194 13.5738C311.088 19.3784 314.456 27.5234 314.456 35.7621C314.581 35.7621 314.737 35.7621 314.924 35.7621C314.924 27.4298 311.462 19.0975 305.568 13.1994ZM314.924 35.7621C314.737 35.7621 314.581 35.7621 314.456 35.7621C314.456 35.8245 314.456 35.8557 314.456 35.8557C314.581 35.8557 314.737 35.8557 314.924 35.8557C314.924 35.8557 314.924 35.8245 314.924 35.7621ZM314.924 35.8557C314.737 35.8557 314.581 35.8557 314.456 35.8557C314.456 161.183 314.456 286.542 314.456 411.932C314.581 411.932 314.737 411.932 314.924 411.932C314.924 286.542 314.924 161.183 314.924 35.8557ZM305.568 434.495C311.462 428.69 314.924 420.358 314.924 411.932C314.737 411.932 314.581 411.932 314.456 411.932C314.456 420.17 311.088 428.409 305.194 434.214C299.393 440.018 291.253 443.482 283.02 443.389C283.02 443.576 283.02 443.763 283.02 443.95C291.347 443.95 299.674 440.486 305.568 434.495ZM283.02 443.95C283.02 443.763 283.02 443.576 283.02 443.389C283.02 443.389 233.214 443.389 133.602 443.389C133.602 443.576 133.602 443.763 133.602 443.95C233.214 443.95 283.02 443.95 283.02 443.95ZM102.353 415.021C102.634 417.081 102.914 420.17 104.598 424.009C106.095 427.847 108.996 432.248 113.674 436.273C116.107 438.239 118.913 439.925 122.282 441.235C125.65 442.546 129.486 443.389 133.602 443.389C133.602 443.264 133.602 443.108 133.602 442.92C125.463 442.92 118.633 439.644 113.955 435.899C109.37 431.967 106.563 427.567 105.066 423.822C103.476 420.077 103.102 416.987 102.821 415.021C102.696 412.962 102.634 411.932 102.634 411.932C102.509 411.932 102.353 411.932 102.166 411.932C102.166 411.932 102.228 412.962 102.353 415.021ZM102.166 411.932C102.353 411.932 102.509 411.932 102.634 411.932C102.634 286.542 102.634 161.183 102.634 35.8557C102.509 35.8557 102.353 35.8557 102.166 35.8557C102.166 161.183 102.166 286.542 102.166 411.932ZM102.166 35.8557C102.353 35.8557 102.509 35.8557 102.634 35.8557C102.634 35.8557 102.634 35.8245 102.634 35.7621C102.509 35.7621 102.353 35.7621 102.166 35.7621C102.166 35.8245 102.166 35.8557 102.166 35.8557ZM111.428 13.5738C105.534 19.3784 102.166 27.5234 102.166 35.7621C102.353 35.7621 102.509 35.7621 102.634 35.7621C102.634 27.7106 106.002 19.6592 111.709 13.9483C117.416 8.23744 125.463 4.86708 133.602 4.86708C133.602 4.67984 133.602 4.5238 133.602 4.39897C125.369 4.30535 117.136 7.76934 111.428 13.5738ZM133.602 4.39897C133.602 4.5238 133.602 4.67984 133.602 4.86708C183.377 4.86708 233.183 4.86708 283.02 4.86708C283.02 4.67984 283.02 4.5238 283.02 4.39897C233.183 4.39897 183.377 4.39897 133.602 4.39897ZM305.194 13.5738C299.393 7.76934 291.253 4.30535 283.02 4.39897C283.02 4.5238 283.02 4.67984 283.02 4.86708C291.16 4.86708 299.206 8.23744 304.913 13.9483C310.62 19.6592 313.989 27.7106 313.895 35.7621C314.082 35.7621 314.269 35.7621 314.456 35.7621C314.456 27.5234 311.088 19.3784 305.194 13.5738ZM314.456 35.7621C314.269 35.7621 314.082 35.7621 313.895 35.7621C313.895 35.8245 313.895 35.8557 313.895 35.8557C314.082 35.8557 314.269 35.8557 314.456 35.8557C314.456 35.8557 314.456 35.8245 314.456 35.7621ZM314.456 35.8557C314.269 35.8557 314.082 35.8557 313.895 35.8557C313.895 161.183 313.895 286.542 313.895 411.932C314.082 411.932 314.269 411.932 314.456 411.932C314.456 286.542 314.456 161.183 314.456 35.8557ZM305.194 434.214C311.088 428.409 314.456 420.17 314.456 411.932C314.269 411.932 314.082 411.932 313.895 411.932C313.989 420.077 310.62 428.128 304.913 433.839C299.206 439.55 291.16 442.92 283.02 442.92C283.02 443.108 283.02 443.264 283.02 443.389C291.253 443.482 299.393 440.018 305.194 434.214ZM283.02 443.389C283.02 443.264 283.02 443.108 283.02 442.92C283.02 442.92 233.214 442.92 133.602 442.92C133.602 443.108 133.602 443.264 133.602 443.389C233.214 443.389 283.02 443.389 283.02 443.389ZM102.821 415.021C103.102 416.987 103.476 420.077 105.066 423.822C106.563 427.567 109.37 431.967 113.955 435.899C118.633 439.644 125.463 442.92 133.602 442.92C133.602 442.733 133.602 442.577 133.602 442.452C125.556 442.359 118.913 439.269 114.329 435.524C109.744 431.592 107.031 427.286 105.534 423.634C103.944 419.89 103.569 416.894 103.289 414.928C103.226 412.93 103.195 411.932 103.195 411.932C103.008 411.932 102.821 411.932 102.634 411.932C102.634 411.932 102.696 412.962 102.821 415.021ZM102.634 411.932C102.821 411.932 103.008 411.932 103.195 411.932C103.195 286.542 103.195 161.183 103.195 35.8557C103.008 35.8557 102.821 35.8557 102.634 35.8557C102.634 161.183 102.634 286.542 102.634 411.932ZM102.634 35.8557C102.821 35.8557 103.008 35.8557 103.195 35.8557C103.195 35.8557 103.195 35.8245 103.195 35.7621C103.008 35.7621 102.821 35.7621 102.634 35.7621C102.634 35.8245 102.634 35.8557 102.634 35.8557ZM111.709 13.9483C106.002 19.6592 102.634 27.7106 102.634 35.7621C102.821 35.7621 103.008 35.7621 103.195 35.7621C103.102 27.8043 106.47 19.9401 112.083 14.3228C117.697 8.61192 125.65 5.33518 133.602 5.33518C133.602 5.21036 133.602 5.05432 133.602 4.86708C125.463 4.86708 117.416 8.23744 111.709 13.9483ZM133.602 4.86708C133.602 5.05432 133.602 5.21036 133.602 5.33518C183.377 5.33518 233.183 5.33518 283.02 5.33518C283.02 5.21036 283.02 5.05432 283.02 4.86708C233.183 4.86708 183.377 4.86708 133.602 4.86708ZM304.913 13.9483C299.206 8.23744 291.16 4.86708 283.02 4.86708C283.02 5.05432 283.02 5.21036 283.02 5.33518C290.973 5.33518 298.925 8.61192 304.539 14.3228C310.153 19.9401 313.427 27.8043 313.427 35.7621C313.614 35.7621 313.77 35.7621 313.895 35.7621C313.989 27.7106 310.62 19.6592 304.913 13.9483ZM313.895 35.7621C313.77 35.7621 313.614 35.7621 313.427 35.7621C313.427 35.8245 313.427 35.8557 313.427 35.8557C313.614 35.8557 313.77 35.8557 313.895 35.8557C313.895 35.8557 313.895 35.8245 313.895 35.7621ZM313.895 35.8557C313.77 35.8557 313.614 35.8557 313.427 35.8557C313.427 161.183 313.427 286.542 313.427 411.932C313.614 411.932 313.77 411.932 313.895 411.932C313.895 286.542 313.895 161.183 313.895 35.8557ZM304.913 433.839C310.62 428.128 313.989 420.077 313.895 411.932C313.77 411.932 313.614 411.932 313.427 411.932C313.427 419.983 310.153 427.847 304.539 433.465C298.925 439.176 290.973 442.452 283.02 442.452C283.02 442.577 283.02 442.733 283.02 442.92C291.16 442.92 299.206 439.55 304.913 433.839ZM283.02 442.92C283.02 442.733 283.02 442.577 283.02 442.452C283.02 442.452 233.214 442.452 133.602 442.452C133.602 442.577 133.602 442.733 133.602 442.92C233.214 442.92 283.02 442.92 283.02 442.92ZM103.289 414.928C103.569 416.894 103.944 419.89 105.534 423.634C107.031 427.286 109.744 431.592 114.329 435.524C118.913 439.269 125.556 442.359 133.602 442.452C133.602 442.203 133.602 441.953 133.602 441.703C125.743 441.703 119.194 438.614 114.703 434.963C110.306 431.218 107.592 427.005 106.095 423.354C104.599 419.796 104.318 416.8 104.037 414.928C103.912 412.93 103.85 411.932 103.85 411.932C103.601 411.932 103.382 411.932 103.195 411.932C103.195 411.932 103.226 412.93 103.289 414.928ZM103.195 411.932C103.382 411.932 103.601 411.932 103.85 411.932C103.85 286.542 103.85 161.183 103.85 35.8557C103.601 35.8557 103.382 35.8557 103.195 35.8557C103.195 161.183 103.195 286.542 103.195 411.932ZM103.195 35.8557C103.382 35.8557 103.601 35.8557 103.85 35.8557C103.85 35.8557 103.85 35.8245 103.85 35.7621C103.601 35.7621 103.382 35.7621 103.195 35.7621C103.195 35.8245 103.195 35.8557 103.195 35.8557ZM112.083 14.3228C106.47 19.9401 103.102 27.8043 103.195 35.7621C103.382 35.7621 103.601 35.7621 103.85 35.7621C103.85 27.9915 107.031 20.2209 112.551 14.7909C118.071 9.26727 125.837 5.99053 133.602 6.08416C133.602 5.8345 133.602 5.58484 133.602 5.33518C125.65 5.33518 117.697 8.61192 112.083 14.3228ZM133.602 5.33518C133.602 5.58484 133.602 5.8345 133.602 6.08416C183.377 6.08416 233.183 6.08416 283.02 6.08416C283.02 5.8345 283.02 5.58484 283.02 5.33518C233.183 5.33518 183.377 5.33518 133.602 5.33518ZM304.539 14.3228C298.925 8.61192 290.973 5.33518 283.02 5.33518C283.02 5.58484 283.02 5.8345 283.02 6.08416C290.785 5.99053 298.551 9.26727 304.071 14.7909C309.591 20.2209 312.772 27.9915 312.772 35.7621C313.022 35.7621 313.24 35.7621 313.427 35.7621C313.427 27.8043 310.153 19.9401 304.539 14.3228ZM313.427 35.7621C313.24 35.7621 313.022 35.7621 312.772 35.7621C312.772 35.8245 312.772 35.8557 312.772 35.8557C313.022 35.8557 313.24 35.8557 313.427 35.8557C313.427 35.8557 313.427 35.8245 313.427 35.7621ZM313.427 35.8557C313.24 35.8557 313.022 35.8557 312.772 35.8557C312.772 161.183 312.772 286.542 312.772 411.932C313.022 411.932 313.24 411.932 313.427 411.932C313.427 286.542 313.427 161.183 313.427 35.8557ZM304.539 433.465C310.153 427.847 313.427 419.983 313.427 411.932C313.24 411.932 313.022 411.932 312.772 411.932C312.772 419.796 309.591 427.473 304.071 432.997C298.551 438.52 290.785 441.797 283.02 441.703C283.02 441.953 283.02 442.203 283.02 442.452C290.973 442.452 298.925 439.176 304.539 433.465ZM283.02 442.452C283.02 442.203 283.02 441.953 283.02 441.703C283.02 441.703 233.214 441.703 133.602 441.703C133.602 441.953 133.602 442.203 133.602 442.452C233.214 442.452 283.02 442.452 283.02 442.452ZM104.037 414.928C104.318 416.8 104.599 419.796 106.095 423.354C107.592 427.005 110.306 431.218 114.703 434.963C119.194 438.614 125.743 441.703 133.602 441.703C133.602 441.516 133.602 441.298 133.602 441.048C125.93 441.048 119.568 437.959 115.171 434.401C110.774 430.75 108.154 426.63 106.75 423.073C105.253 419.609 104.973 416.707 104.692 414.834C104.567 412.899 104.505 411.932 104.505 411.932C104.318 411.932 104.1 411.932 103.85 411.932C103.85 411.932 103.912 412.93 104.037 414.928ZM103.85 411.932C104.1 411.932 104.318 411.932 104.505 411.932C104.505 286.542 104.505 161.183 104.505 35.8557C104.318 35.8557 104.1 35.8557 103.85 35.8557C103.85 161.183 103.85 286.542 103.85 411.932ZM103.85 35.8557C104.1 35.8557 104.318 35.8557 104.505 35.8557C104.505 35.8557 104.505 35.8245 104.505 35.7621C104.318 35.7621 104.1 35.7621 103.85 35.7621C103.85 35.8245 103.85 35.8557 103.85 35.8557ZM112.551 14.7909C107.031 20.2209 103.85 27.9915 103.85 35.7621C104.1 35.7621 104.318 35.7621 104.505 35.7621C104.505 28.1787 107.686 20.5954 113.019 15.259C118.446 9.829 125.93 6.7395 133.602 6.7395C133.602 6.48984 133.602 6.2714 133.602 6.08416C125.837 5.99053 118.071 9.26727 112.551 14.7909ZM133.602 6.08416C133.602 6.2714 133.602 6.48984 133.602 6.7395C183.377 6.7395 233.183 6.7395 283.02 6.7395C283.02 6.48984 283.02 6.2714 283.02 6.08416C233.183 6.08416 183.377 6.08416 133.602 6.08416ZM304.071 14.7909C298.551 9.26727 290.785 5.99053 283.02 6.08416C283.02 6.2714 283.02 6.48984 283.02 6.7395C290.598 6.7395 298.177 9.829 303.51 15.259C308.936 20.5954 312.117 28.1787 312.117 35.7621C312.305 35.7621 312.523 35.7621 312.772 35.7621C312.772 27.9915 309.591 20.2209 304.071 14.7909ZM312.772 35.7621C312.523 35.7621 312.305 35.7621 312.117 35.7621C312.117 35.8245 312.117 35.8557 312.117 35.8557C312.305 35.8557 312.523 35.8557 312.772 35.8557C312.772 35.8557 312.772 35.8245 312.772 35.7621ZM312.772 35.8557C312.523 35.8557 312.305 35.8557 312.117 35.8557C312.117 161.183 312.117 286.542 312.117 411.932C312.305 411.932 312.523 411.932 312.772 411.932C312.772 286.542 312.772 161.183 312.772 35.8557ZM304.071 432.997C309.591 427.473 312.772 419.796 312.772 411.932C312.523 411.932 312.305 411.932 312.117 411.932C312.117 419.609 308.936 427.192 303.603 432.529C298.177 437.959 290.598 441.048 283.02 441.048C283.02 441.298 283.02 441.516 283.02 441.703C290.785 441.797 298.551 438.52 304.071 432.997ZM283.02 441.703C283.02 441.516 283.02 441.298 283.02 441.048C283.02 441.048 233.214 441.048 133.602 441.048C133.602 441.298 133.602 441.516 133.602 441.703C233.214 441.703 283.02 441.703 283.02 441.703ZM104.692 414.834C104.973 416.707 105.253 419.609 106.75 423.073C108.154 426.63 110.774 430.75 115.171 434.401C119.568 437.959 125.93 441.048 133.602 441.048C133.602 440.736 133.602 440.455 133.602 440.205C126.118 440.205 119.943 437.21 115.732 433.746C111.522 430.188 108.902 426.162 107.592 422.792C106.095 419.328 105.815 416.519 105.534 414.74C105.409 412.868 105.347 411.932 105.347 411.932C105.097 411.932 104.817 411.932 104.505 411.932C104.505 411.932 104.567 412.899 104.692 414.834ZM104.505 411.932C104.817 411.932 105.097 411.932 105.347 411.932C105.347 286.542 105.347 161.183 105.347 35.8557C105.097 35.8557 104.817 35.8557 104.505 35.8557C104.505 161.183 104.505 286.542 104.505 411.932ZM104.505 35.8557C104.817 35.8557 105.097 35.8557 105.347 35.8557C105.347 35.8557 105.347 35.8245 105.347 35.7621C105.097 35.7621 104.817 35.7621 104.505 35.7621C104.505 35.8245 104.505 35.8557 104.505 35.8557ZM113.019 15.259C107.686 20.5954 104.505 28.1787 104.505 35.7621C104.817 35.7621 105.097 35.7621 105.347 35.7621C105.347 28.366 108.435 21.0635 113.674 15.8208C118.913 10.578 126.211 7.58209 133.602 7.58209C133.602 7.27002 133.602 6.98916 133.602 6.7395C125.93 6.7395 118.446 9.829 113.019 15.259ZM133.602 6.7395C133.602 6.98916 133.602 7.27002 133.602 7.58209C183.377 7.58209 233.183 7.58209 283.02 7.58209C283.02 7.27002 283.02 6.98916 283.02 6.7395C233.183 6.7395 183.377 6.7395 133.602 6.7395ZM303.51 15.259C298.177 9.829 290.598 6.7395 283.02 6.7395C283.02 6.98916 283.02 7.27002 283.02 7.58209C290.411 7.58209 297.709 10.578 302.948 15.8208C308.188 21.0635 311.275 28.366 311.182 35.7621C311.494 35.7621 311.806 35.7621 312.117 35.7621C312.117 28.1787 308.936 20.5954 303.51 15.259ZM312.117 35.7621C311.806 35.7621 311.494 35.7621 311.182 35.7621C311.182 35.8245 311.182 35.8557 311.182 35.8557C311.494 35.8557 311.806 35.8557 312.117 35.8557C312.117 35.8557 312.117 35.8245 312.117 35.7621ZM312.117 35.8557C311.806 35.8557 311.494 35.8557 311.182 35.8557C311.182 161.183 311.182 286.542 311.182 411.932C311.494 411.932 311.806 411.932 312.117 411.932C312.117 286.542 312.117 161.183 312.117 35.8557ZM303.603 432.529C308.936 427.192 312.117 419.609 312.117 411.932C311.806 411.932 311.494 411.932 311.182 411.932C311.275 419.328 308.188 426.724 302.948 431.873C297.709 437.116 290.411 440.205 283.02 440.205C283.02 440.455 283.02 440.736 283.02 441.048C290.598 441.048 298.177 437.959 303.603 432.529ZM283.02 441.048C283.02 440.736 283.02 440.455 283.02 440.205C283.02 440.205 233.214 440.205 133.602 440.205C133.602 440.455 133.602 440.736 133.602 441.048C233.214 441.048 283.02 441.048 283.02 441.048ZM105.534 414.74C105.815 416.519 106.095 419.328 107.592 422.792C108.902 426.162 111.522 430.188 115.732 433.746C119.943 437.21 126.118 440.205 133.602 440.205C133.602 439.893 133.602 439.612 133.602 439.363C126.398 439.363 120.41 436.461 116.294 433.09C112.177 429.626 109.651 425.788 108.341 422.417C106.938 419.141 106.657 416.426 106.376 414.647C106.314 412.837 106.283 411.932 106.283 411.932C105.971 411.932 105.659 411.932 105.347 411.932C105.347 411.932 105.409 412.868 105.534 414.74ZM105.347 411.932C105.659 411.932 105.971 411.932 106.283 411.932C106.283 286.542 106.283 161.183 106.283 35.8557C105.971 35.8557 105.659 35.8557 105.347 35.8557C105.347 161.183 105.347 286.542 105.347 411.932ZM105.347 35.8557C105.659 35.8557 105.971 35.8557 106.283 35.8557C106.283 35.8557 106.283 35.8245 106.283 35.7621C105.971 35.7621 105.659 35.7621 105.347 35.7621C105.347 35.8245 105.347 35.8557 105.347 35.8557ZM113.674 15.8208C108.435 21.0635 105.347 28.366 105.347 35.7621C105.659 35.7621 105.971 35.7621 106.283 35.7621C106.189 28.6468 109.183 21.5316 114.235 16.4761C119.288 11.4206 126.398 8.42468 133.602 8.42468C133.602 8.17503 133.602 7.89416 133.602 7.58209C126.211 7.58209 118.913 10.578 113.674 15.8208ZM133.602 7.58209C133.602 7.89416 133.602 8.17503 133.602 8.42468C183.377 8.42468 233.183 8.42468 283.02 8.42468C283.02 8.17503 283.02 7.89416 283.02 7.58209C233.183 7.58209 183.377 7.58209 133.602 7.58209ZM302.948 15.8208C297.709 10.578 290.411 7.58209 283.02 7.58209C283.02 7.89416 283.02 8.17503 283.02 8.42468C290.224 8.42468 297.335 11.4206 302.387 16.4761C307.439 21.5316 310.433 28.6468 310.34 35.7621C310.652 35.7621 310.932 35.7621 311.182 35.7621C311.275 28.366 308.188 21.0635 302.948 15.8208ZM311.182 35.7621C310.932 35.7621 310.652 35.7621 310.34 35.7621C310.34 35.8245 310.34 35.8557 310.34 35.8557C310.652 35.8557 310.932 35.8557 311.182 35.8557C311.182 35.8557 311.182 35.8245 311.182 35.7621ZM311.182 35.8557C310.932 35.8557 310.652 35.8557 310.34 35.8557C310.34 161.183 310.34 286.542 310.34 411.932C310.652 411.932 310.932 411.932 311.182 411.932C311.182 286.542 311.182 161.183 311.182 35.8557ZM302.948 431.873C308.188 426.724 311.275 419.328 311.182 411.932C310.932 411.932 310.652 411.932 310.34 411.932C310.433 419.141 307.439 426.256 302.387 431.311C297.335 436.367 290.224 439.363 283.02 439.363C283.02 439.612 283.02 439.893 283.02 440.205C290.411 440.205 297.709 437.116 302.948 431.873ZM283.02 440.205C283.02 439.893 283.02 439.612 283.02 439.363C283.02 439.363 233.214 439.363 133.602 439.363C133.602 439.612 133.602 439.893 133.602 440.205C233.214 440.205 283.02 440.205 283.02 440.205ZM106.376 414.647C106.657 416.426 106.938 419.141 108.341 422.417C109.651 425.788 112.177 429.626 116.294 433.09C120.41 436.461 126.398 439.363 133.602 439.363C133.602 439.051 133.602 438.77 133.602 438.52C126.585 438.427 120.785 435.712 116.855 432.435C112.832 429.064 110.399 425.32 109.089 422.137C107.78 418.86 107.499 416.238 107.218 414.553C107.156 412.806 107.125 411.932 107.125 411.932C106.813 411.932 106.532 411.932 106.283 411.932C106.283 411.932 106.314 412.837 106.376 414.647ZM106.283 411.932C106.532 411.932 106.813 411.932 107.125 411.932C107.125 286.542 107.125 161.183 107.125 35.8557C106.813 35.8557 106.532 35.8557 106.283 35.8557C106.283 161.183 106.283 286.542 106.283 411.932ZM106.283 35.8557C106.532 35.8557 106.813 35.8557 107.125 35.8557C107.125 35.8557 107.125 35.8245 107.125 35.7621C106.813 35.7621 106.532 35.7621 106.283 35.7621C106.283 35.8245 106.283 35.8557 106.283 35.8557ZM114.235 16.4761C109.183 21.5316 106.189 28.6468 106.283 35.7621C106.532 35.7621 106.813 35.7621 107.125 35.7621C107.125 28.8341 109.931 21.9997 114.89 17.0378C119.755 12.1695 126.679 9.26728 133.602 9.26728C133.602 9.01762 133.602 8.73675 133.602 8.42468C126.398 8.42468 119.288 11.4206 114.235 16.4761ZM133.602 8.42468C133.602 8.73675 133.602 9.01762 133.602 9.26728C183.377 9.26728 233.183 9.26728 283.02 9.26728C283.02 9.01762 283.02 8.73675 283.02 8.42468C233.183 8.42468 183.377 8.42468 133.602 8.42468ZM302.387 16.4761C297.335 11.4206 290.224 8.42468 283.02 8.42468C283.02 8.73675 283.02 9.01762 283.02 9.26728C289.943 9.26728 296.867 12.1695 301.732 17.0378C306.691 21.9997 309.498 28.8341 309.498 35.7621C309.81 35.7621 310.09 35.7621 310.34 35.7621C310.433 28.6468 307.439 21.5316 302.387 16.4761ZM310.34 35.7621C310.09 35.7621 309.81 35.7621 309.498 35.7621C309.498 35.8245 309.498 35.8557 309.498 35.8557C309.81 35.8557 310.09 35.8557 310.34 35.8557C310.34 35.8557 310.34 35.8245 310.34 35.7621ZM310.34 35.8557C310.09 35.8557 309.81 35.8557 309.498 35.8557C309.498 161.183 309.498 286.542 309.498 411.932C309.81 411.932 310.09 411.932 310.34 411.932C310.34 286.542 310.34 161.183 310.34 35.8557ZM302.387 431.311C307.439 426.256 310.433 419.141 310.34 411.932C310.09 411.932 309.81 411.932 309.498 411.932C309.498 418.953 306.691 425.788 301.732 430.656C296.867 435.618 289.943 438.52 283.02 438.52C283.02 438.77 283.02 439.051 283.02 439.363C290.224 439.363 297.335 436.367 302.387 431.311ZM283.02 439.363C283.02 439.051 283.02 438.77 283.02 438.52C283.02 438.52 233.214 438.52 133.602 438.52C133.602 438.77 133.602 439.051 133.602 439.363C233.214 439.363 283.02 439.363 283.02 439.363ZM107.218 414.553C107.499 416.238 107.78 418.86 109.089 422.137C110.399 425.32 112.832 429.064 116.855 432.435C120.785 435.712 126.585 438.427 133.602 438.52C133.602 438.208 133.602 437.896 133.602 437.584C126.866 437.584 121.252 434.963 117.323 431.779C113.487 428.503 111.148 424.852 109.932 421.762C108.622 418.673 108.341 416.145 108.06 414.46C107.998 412.774 107.967 411.932 107.967 411.932C107.655 411.932 107.374 411.932 107.125 411.932C107.125 411.932 107.156 412.806 107.218 414.553ZM107.125 411.932C107.374 411.932 107.655 411.932 107.967 411.932C107.967 286.542 107.967 161.183 107.967 35.8557C107.655 35.8557 107.374 35.8557 107.125 35.8557C107.125 161.183 107.125 286.542 107.125 411.932ZM107.125 35.8557C107.374 35.8557 107.655 35.8557 107.967 35.8557C107.967 35.8557 107.967 35.8245 107.967 35.7621C107.655 35.7621 107.374 35.7621 107.125 35.7621C107.125 35.8245 107.125 35.8557 107.125 35.8557ZM114.89 17.0378C109.931 21.9997 107.125 28.8341 107.125 35.7621C107.374 35.7621 107.655 35.7621 107.967 35.7621C107.967 29.115 110.68 22.4679 115.452 17.6932C120.223 12.9185 126.866 10.1099 133.602 10.2035C133.602 9.89142 133.602 9.57935 133.602 9.26728C126.679 9.26728 119.755 12.1695 114.89 17.0378ZM133.602 9.26728C133.602 9.57935 133.602 9.89142 133.602 10.2035C183.377 10.2035 233.183 10.2035 283.02 10.2035C283.02 9.89142 283.02 9.57935 283.02 9.26728C233.183 9.26728 183.377 9.26728 133.602 9.26728ZM301.732 17.0378C296.867 12.1695 289.943 9.26728 283.02 9.26728C283.02 9.57935 283.02 9.89142 283.02 10.2035C289.756 10.1099 296.399 12.9185 301.171 17.6932C305.942 22.4679 308.656 29.115 308.656 35.7621C308.968 35.7621 309.248 35.7621 309.498 35.7621C309.498 28.8341 306.691 21.9997 301.732 17.0378ZM309.498 35.7621C309.248 35.7621 308.968 35.7621 308.656 35.7621C308.656 35.8245 308.656 35.8557 308.656 35.8557C308.968 35.8557 309.248 35.8557 309.498 35.8557C309.498 35.8557 309.498 35.8245 309.498 35.7621ZM309.498 35.8557C309.248 35.8557 308.968 35.8557 308.656 35.8557C308.656 161.183 308.656 286.542 308.656 411.932C308.968 411.932 309.248 411.932 309.498 411.932C309.498 286.542 309.498 161.183 309.498 35.8557ZM301.732 430.656C306.691 425.788 309.498 418.953 309.498 411.932C309.248 411.932 308.968 411.932 308.656 411.932C308.656 418.673 305.942 425.32 301.171 430.094C296.399 434.869 289.756 437.678 283.02 437.584C283.02 437.896 283.02 438.208 283.02 438.52C289.943 438.52 296.867 435.618 301.732 430.656ZM283.02 438.52C283.02 438.208 283.02 437.896 283.02 437.584C283.02 437.584 233.214 437.584 133.602 437.584C133.602 437.896 133.602 438.208 133.602 438.52C233.214 438.52 283.02 438.52 283.02 438.52ZM108.06 414.46C108.341 416.145 108.622 418.673 109.932 421.762C111.148 424.852 113.487 428.503 117.323 431.779C121.252 434.963 126.866 437.584 133.602 437.584C133.602 437.397 133.602 437.241 133.602 437.116C126.96 437.022 121.533 434.401 117.697 431.405C113.955 428.128 111.616 424.571 110.399 421.575C109.089 418.579 108.902 416.051 108.622 414.46C108.559 412.774 108.528 411.932 108.528 411.932C108.341 411.932 108.154 411.932 107.967 411.932C107.967 411.932 107.998 412.774 108.06 414.46ZM107.967 411.932C108.154 411.932 108.341 411.932 108.528 411.932C108.528 286.542 108.528 161.183 108.528 35.8557C108.341 35.8557 108.154 35.8557 107.967 35.8557C107.967 161.183 107.967 286.542 107.967 411.932ZM107.967 35.8557C108.154 35.8557 108.341 35.8557 108.528 35.8557C108.528 35.8557 108.528 35.8245 108.528 35.7621C108.341 35.7621 108.154 35.7621 107.967 35.7621C107.967 35.8245 107.967 35.8557 107.967 35.8557ZM115.452 17.6932C110.68 22.4679 107.967 29.115 107.967 35.7621C108.154 35.7621 108.341 35.7621 108.528 35.7621C108.435 29.2086 111.148 22.7487 115.826 18.0677C120.504 13.3866 127.053 10.6716 133.602 10.6716C133.602 10.4844 133.602 10.3283 133.602 10.2035C126.866 10.1099 120.223 12.9185 115.452 17.6932ZM133.602 10.2035C133.602 10.3283 133.602 10.4844 133.602 10.6716C183.377 10.6716 233.183 10.6716 283.02 10.6716C283.02 10.4844 283.02 10.3283 283.02 10.2035C233.183 10.2035 183.377 10.2035 133.602 10.2035ZM301.171 17.6932C296.399 12.9185 289.756 10.1099 283.02 10.2035C283.02 10.3283 283.02 10.4844 283.02 10.6716C289.569 10.6716 296.118 13.3866 300.703 18.0677C305.381 22.7487 308.094 29.2086 308.094 35.7621C308.281 35.7621 308.469 35.7621 308.656 35.7621C308.656 29.115 305.942 22.4679 301.171 17.6932ZM308.656 35.7621C308.469 35.7621 308.281 35.7621 308.094 35.7621C308.094 35.8245 308.094 35.8557 308.094 35.8557C308.281 35.8557 308.469 35.8557 308.656 35.8557C308.656 35.8557 308.656 35.8245 308.656 35.7621ZM308.656 35.8557C308.469 35.8557 308.281 35.8557 308.094 35.8557C308.094 161.183 308.094 286.542 308.094 411.932C308.281 411.932 308.469 411.932 308.656 411.932C308.656 286.542 308.656 161.183 308.656 35.8557ZM301.171 430.094C305.942 425.32 308.656 418.673 308.656 411.932C308.469 411.932 308.281 411.932 308.094 411.932C308.094 418.579 305.381 425.039 300.797 429.72C296.118 434.401 289.569 437.116 283.02 437.116C283.02 437.241 283.02 437.397 283.02 437.584C289.756 437.678 296.399 434.869 301.171 430.094ZM283.02 437.584C283.02 437.397 283.02 437.241 283.02 437.116C283.02 437.116 233.214 437.116 133.602 437.116C133.602 437.241 133.602 437.397 133.602 437.584C233.214 437.584 283.02 437.584 283.02 437.584ZM108.622 414.46C108.902 416.051 109.089 418.579 110.399 421.575C111.616 424.571 113.955 428.128 117.697 431.405C121.533 434.401 126.96 437.022 133.602 437.116C133.602 436.929 133.602 436.741 133.602 436.554C127.147 436.554 121.72 433.933 118.071 430.937C114.329 427.847 112.083 424.29 110.961 421.388C109.651 418.392 109.37 415.958 109.183 414.366C109.058 412.743 108.996 411.932 108.996 411.932C108.871 411.932 108.715 411.932 108.528 411.932C108.528 411.932 108.559 412.774 108.622 414.46ZM108.528 411.932C108.715 411.932 108.871 411.932 108.996 411.932C108.996 286.542 108.996 161.183 108.996 35.8557C108.871 35.8557 108.715 35.8557 108.528 35.8557C108.528 161.183 108.528 286.542 108.528 411.932ZM108.528 35.8557C108.715 35.8557 108.871 35.8557 108.996 35.8557C108.996 35.8557 108.996 35.8245 108.996 35.7621C108.871 35.7621 108.715 35.7621 108.528 35.7621C108.528 35.8245 108.528 35.8557 108.528 35.8557ZM115.826 18.0677C111.148 22.7487 108.435 29.2086 108.528 35.7621C108.715 35.7621 108.871 35.7621 108.996 35.7621C108.996 29.3958 111.709 23.0296 116.2 18.4421C120.785 13.8547 127.147 11.2333 133.602 11.2333C133.602 11.0461 133.602 10.8588 133.602 10.6716C127.053 10.6716 120.504 13.3866 115.826 18.0677ZM133.602 10.6716C133.602 10.8588 133.602 11.0461 133.602 11.2333C183.377 11.2333 233.183 11.2333 283.02 11.2333C283.02 11.0461 283.02 10.8588 283.02 10.6716C233.183 10.6716 183.377 10.6716 133.602 10.6716ZM300.703 18.0677C296.118 13.3866 289.569 10.6716 283.02 10.6716C283.02 10.8588 283.02 11.0461 283.02 11.2333C289.476 11.2333 295.838 13.8547 300.329 18.4421C304.913 23.0296 307.627 29.3958 307.533 35.7621C307.72 35.7621 307.907 35.7621 308.094 35.7621C308.094 29.2086 305.381 22.7487 300.703 18.0677ZM308.094 35.7621C307.907 35.7621 307.72 35.7621 307.533 35.7621C307.533 35.8245 307.533 35.8557 307.533 35.8557C307.72 35.8557 307.907 35.8557 308.094 35.8557C308.094 35.8557 308.094 35.8245 308.094 35.7621ZM308.094 35.8557C307.907 35.8557 307.72 35.8557 307.533 35.8557C307.533 161.183 307.533 286.542 307.533 411.932C307.72 411.932 307.907 411.932 308.094 411.932C308.094 286.542 308.094 161.183 308.094 35.8557ZM300.797 429.72C305.381 425.039 308.094 418.579 308.094 411.932C307.907 411.932 307.72 411.932 307.533 411.932C307.627 418.392 304.913 424.758 300.329 429.345C295.838 433.933 289.476 436.554 283.02 436.554C283.02 436.741 283.02 436.929 283.02 437.116C289.569 437.116 296.118 434.401 300.797 429.72ZM283.02 437.116C283.02 436.929 283.02 436.741 283.02 436.554C283.02 436.554 233.214 436.554 133.602 436.554C133.602 436.741 133.602 436.929 133.602 437.116C233.214 437.116 283.02 437.116 283.02 437.116ZM109.183 414.366C109.37 415.958 109.651 418.392 110.961 421.388C112.083 424.29 114.329 427.847 118.071 430.937C121.72 433.933 127.147 436.554 133.602 436.554C133.602 436.367 133.602 436.18 133.602 435.992C127.24 435.992 122.001 433.465 118.352 430.562C114.797 427.473 112.551 424.103 111.428 421.2C110.212 418.298 109.931 415.864 109.651 414.366C109.588 412.743 109.557 411.932 109.557 411.932C109.37 411.932 109.183 411.932 108.996 411.932C108.996 411.932 109.058 412.743 109.183 414.366ZM108.996 411.932C109.183 411.932 109.37 411.932 109.557 411.932C109.557 286.542 109.557 161.183 109.557 35.8557C109.37 35.8557 109.183 35.8557 108.996 35.8557C108.996 161.183 108.996 286.542 108.996 411.932ZM108.996 35.8557C109.183 35.8557 109.37 35.8557 109.557 35.8557C109.557 35.8557 109.557 35.8245 109.557 35.7621C109.37 35.7621 109.183 35.7621 108.996 35.7621C108.996 35.8245 108.996 35.8557 108.996 35.8557ZM116.2 18.4421C111.709 23.0296 108.996 29.3958 108.996 35.7621C109.183 35.7621 109.37 35.7621 109.557 35.7621C109.557 29.4894 112.177 23.3104 116.668 18.8166C121.065 14.3228 127.334 11.795 133.602 11.795C133.602 11.6078 133.602 11.4206 133.602 11.2333C127.147 11.2333 120.785 13.8547 116.2 18.4421ZM133.602 11.2333C133.602 11.4206 133.602 11.6078 133.602 11.795C183.377 11.795 233.183 11.795 283.02 11.795C283.02 11.6078 283.02 11.4206 283.02 11.2333C233.183 11.2333 183.377 11.2333 133.602 11.2333ZM300.329 18.4421C295.838 13.8547 289.476 11.2333 283.02 11.2333C283.02 11.4206 283.02 11.6078 283.02 11.795C289.288 11.795 295.557 14.3228 299.954 18.8166C304.445 23.3104 307.065 29.4894 307.065 35.7621C307.252 35.7621 307.408 35.7621 307.533 35.7621C307.627 29.3958 304.913 23.0296 300.329 18.4421ZM307.533 35.7621C307.408 35.7621 307.252 35.7621 307.065 35.7621C307.065 35.8245 307.065 35.8557 307.065 35.8557C307.252 35.8557 307.408 35.8557 307.533 35.8557C307.533 35.8557 307.533 35.8245 307.533 35.7621ZM307.533 35.8557C307.408 35.8557 307.252 35.8557 307.065 35.8557C307.065 161.183 307.065 286.542 307.065 411.932C307.252 411.932 307.408 411.932 307.533 411.932C307.533 286.542 307.533 161.183 307.533 35.8557ZM300.329 429.345C304.913 424.758 307.627 418.392 307.533 411.932C307.408 411.932 307.252 411.932 307.065 411.932C307.065 418.298 304.445 424.477 299.954 428.971C295.557 433.465 289.288 435.992 283.02 435.992C283.02 436.18 283.02 436.367 283.02 436.554C289.476 436.554 295.838 433.933 300.329 429.345ZM283.02 436.554C283.02 436.367 283.02 436.18 283.02 435.992C283.02 435.992 233.214 435.992 133.602 435.992C133.602 436.18 133.602 436.367 133.602 436.554C233.214 436.554 283.02 436.554 283.02 436.554ZM109.651 414.366C109.931 415.864 110.212 418.298 111.428 421.2C112.551 424.103 114.797 427.473 118.352 430.562C122.001 433.465 127.24 435.992 133.602 435.992C133.602 435.992 133.602 435.805 133.602 435.431C127.427 435.431 122.282 432.997 118.726 430.094C115.171 427.098 113.019 423.822 111.896 420.919C110.68 418.111 110.493 415.77 110.212 414.272C110.15 412.712 110.119 411.932 110.119 411.932C109.744 411.932 109.557 411.932 109.557 411.932C109.557 411.932 109.588 412.743 109.651 414.366ZM109.557 411.932C109.557 411.932 109.744 411.932 110.119 411.932C110.119 286.542 110.119 161.183 110.119 35.8557C109.744 35.8557 109.557 35.8557 109.557 35.8557C109.557 161.183 109.557 286.542 109.557 411.932ZM109.557 35.8557C109.557 35.8557 109.744 35.8557 110.119 35.8557C109.744 35.7933 109.557 35.7621 109.557 35.7621C109.557 35.8245 109.557 35.8557 109.557 35.8557ZM116.668 18.8166C112.177 23.3104 109.557 29.4894 109.557 35.7621C109.557 35.7621 109.744 35.7933 110.119 35.8557C110.119 29.6767 112.645 23.5913 117.042 19.1911C121.346 14.7909 127.427 12.2631 133.602 12.3568C133.602 11.9823 133.602 11.795 133.602 11.795C127.334 11.795 121.065 14.3228 116.668 18.8166ZM133.602 11.795C133.602 11.795 133.602 11.9823 133.602 12.3568C183.377 12.3568 233.183 12.3568 283.02 12.3568C283.02 11.9823 283.02 11.795 283.02 11.795C233.183 11.795 183.377 11.795 133.602 11.795ZM299.954 18.8166C295.557 14.3228 289.288 11.795 283.02 11.795C283.02 11.795 283.02 11.9823 283.02 12.3568C289.195 12.2631 295.276 14.7909 299.58 19.1911C303.978 23.5913 306.504 29.6767 306.504 35.8557C306.878 35.7933 307.065 35.7621 307.065 35.7621C307.065 29.4894 304.445 23.3104 299.954 18.8166ZM307.065 35.7621C307.065 35.7621 306.878 35.7933 306.504 35.8557C306.878 35.8557 307.065 35.8557 307.065 35.8557C307.065 35.8557 307.065 35.8245 307.065 35.7621ZM307.065 35.8557C307.065 35.8557 306.878 35.8557 306.504 35.8557C306.504 161.183 306.504 286.542 306.504 411.932C306.878 411.932 307.065 411.932 307.065 411.932C307.065 286.542 307.065 161.183 307.065 35.8557ZM299.954 428.971C304.445 424.477 307.065 418.298 307.065 411.932C307.065 411.932 306.878 411.932 306.504 411.932C306.504 418.111 303.978 424.196 299.58 428.596C295.276 432.903 289.195 435.431 283.02 435.431C283.02 435.805 283.02 435.992 283.02 435.992C289.288 435.992 295.557 433.465 299.954 428.971ZM283.02 435.992C283.02 435.992 283.02 435.805 283.02 435.431C283.02 435.431 233.214 435.431 133.602 435.431C133.602 435.805 133.602 435.992 133.602 435.992C233.214 435.992 283.02 435.992 283.02 435.992Z" fill="url(#paint3_linear_1330_2727)"/>
</g>
<path style="mix-blend-mode:color-dodge" d="M295.65 10.1111C295.65 15.7283 258.6 20.2222 212.849 20.2222C167.097 20.2222 130.047 15.7283 130.047 10.1111C130.047 4.58743 167.097 0 212.849 0C258.6 0 295.65 4.58743 295.65 10.1111Z" fill="url(#paint4_radial_1330_2727)"/>
<path style="mix-blend-mode:color-dodge" d="M295.65 437.586C295.65 443.109 258.6 447.697 212.849 447.697C167.097 447.697 130.047 443.109 130.047 437.586C130.047 431.968 167.097 427.475 212.849 427.475C258.6 427.475 295.65 431.968 295.65 437.586Z" fill="url(#paint5_radial_1330_2727)"/>
<path d="M283.023 13.7617H133.606C121.443 13.7617 111.619 23.6856 111.619 35.8563V411.932C111.619 424.103 121.443 433.933 133.606 433.933H283.023C295.186 433.933 305.01 424.103 305.01 411.932V35.8563C305.01 23.6856 295.186 13.7617 283.023 13.7617Z" fill="#1B1464"/>
<path d="M267.303 174.042H140.808C131.639 174.042 124.248 166.646 124.248 157.471V120.771C124.248 111.69 131.639 104.2 140.808 104.2H267.303C276.379 104.2 283.864 111.69 283.864 120.771V157.471C283.864 166.646 276.379 174.042 267.303 174.042Z" fill="#2B298E"/>
<path d="M274.227 379.352H133.791C128.552 379.352 124.248 375.046 124.248 369.709V365.496C124.248 360.16 128.552 355.854 133.791 355.854H274.227C279.56 355.854 283.864 360.16 283.864 365.496V369.709C283.864 375.046 279.56 379.352 274.227 379.352Z" fill="#2B298E"/>
<path d="M126.211 329.547V202.222C126.211 193.234 133.415 186.025 142.397 186.025H176.453C185.435 186.025 192.639 193.234 192.639 202.222V329.547C192.639 338.441 185.435 345.743 176.453 345.743H142.397C133.415 345.743 126.211 338.441 126.211 329.547Z" fill="#2B298E"/>
<path d="M178.23 206.903H141.648C140.899 206.903 140.244 206.248 140.244 205.405C140.244 204.656 140.899 204.001 141.648 204.001H178.23C178.979 204.001 179.727 204.656 179.727 205.405C179.727 206.248 178.979 206.903 178.23 206.903Z" fill="#1B1464"/>
<path d="M178.23 219.262H141.648C140.899 219.262 140.244 218.606 140.244 217.764C140.244 216.921 140.899 216.266 141.648 216.266H178.23C178.979 216.266 179.727 216.921 179.727 217.764C179.727 218.606 178.979 219.262 178.23 219.262Z" fill="#1B1464"/>
<path d="M178.23 231.62H141.648C140.899 231.62 140.244 230.965 140.244 230.122C140.244 229.279 140.899 228.624 141.648 228.624H178.23C178.979 228.624 179.727 229.279 179.727 230.122C179.727 230.965 178.979 231.62 178.23 231.62Z" fill="#1B1464"/>
<path d="M178.23 243.884H141.648C140.899 243.884 140.244 243.228 140.244 242.386C140.244 241.637 140.899 240.888 141.648 240.888H178.23C178.979 240.888 179.727 241.637 179.727 242.386C179.727 243.228 178.979 243.884 178.23 243.884Z" fill="#1B1464"/>
<path d="M178.23 256.241H141.648C140.899 256.241 140.244 255.586 140.244 254.743C140.244 253.9 140.899 253.245 141.648 253.245H178.23C178.979 253.245 179.727 253.9 179.727 254.743C179.727 255.586 178.979 256.241 178.23 256.241Z" fill="#1B1464"/>
<path d="M178.23 268.599H141.648C140.899 268.599 140.244 267.85 140.244 267.101C140.244 266.259 140.899 265.604 141.648 265.604H178.23C178.979 265.604 179.727 266.259 179.727 267.101C179.727 267.85 178.979 268.599 178.23 268.599Z" fill="#1B1464"/>
<path d="M178.23 280.864H141.648C140.899 280.864 140.244 280.209 140.244 279.366C140.244 278.523 140.899 277.868 141.648 277.868H178.23C178.979 277.868 179.727 278.523 179.727 279.366C179.727 280.209 178.979 280.864 178.23 280.864Z" fill="#1B1464"/>
<path d="M178.23 293.22H141.648C140.899 293.22 140.244 292.565 140.244 291.723C140.244 290.88 140.899 290.225 141.648 290.225H178.23C178.979 290.225 179.727 290.88 179.727 291.723C179.727 292.565 178.979 293.22 178.23 293.22Z" fill="#1B1464"/>
<path d="M178.23 305.484H141.648C140.899 305.484 140.244 304.829 140.244 304.08C140.244 303.237 140.899 302.582 141.648 302.582H178.23C178.979 302.582 179.727 303.237 179.727 304.08C179.727 304.829 178.979 305.484 178.23 305.484Z" fill="#1B1464"/>
<path d="M178.23 317.844H141.648C140.899 317.844 140.244 317.188 140.244 316.346C140.244 315.503 140.899 314.848 141.648 314.848H178.23C178.979 314.848 179.727 315.503 179.727 316.346C179.727 317.188 178.979 317.844 178.23 317.844Z" fill="#1B1464"/>
<path d="M178.23 330.202H141.648C140.899 330.202 140.244 329.547 140.244 328.704C140.244 327.861 140.899 327.206 141.648 327.206H178.23C178.979 327.206 179.727 327.861 179.727 328.704C179.727 329.547 178.979 330.202 178.23 330.202Z" fill="#1B1464"/>
<path d="M281.804 329.547V202.222C281.804 193.234 274.599 186.025 265.711 186.025H231.561C222.673 186.025 215.375 193.234 215.375 202.222V329.547C215.375 338.441 222.673 345.743 231.561 345.743H265.711C274.599 345.743 281.804 338.441 281.804 329.547Z" fill="#2B298E"/>
<path d="M266.832 205.779H230.343C229.594 205.779 228.846 205.03 228.846 204.281C228.846 203.439 229.594 202.783 230.343 202.783H266.832C267.674 202.783 268.329 203.439 268.329 204.281C268.329 205.03 267.674 205.779 266.832 205.779Z" fill="#1B1464"/>
<path d="M266.832 218.045H230.343C229.594 218.045 228.846 217.389 228.846 216.547C228.846 215.704 229.594 215.049 230.343 215.049H266.832C267.674 215.049 268.329 215.704 268.329 216.547C268.329 217.389 267.674 218.045 266.832 218.045Z" fill="#1B1464"/>
<path d="M266.832 230.402H230.343C229.594 230.402 228.846 229.747 228.846 228.904C228.846 228.062 229.594 227.406 230.343 227.406H266.832C267.674 227.406 268.329 228.062 268.329 228.904C268.329 229.747 267.674 230.402 266.832 230.402Z" fill="#1B1464"/>
<path d="M266.832 242.667H230.343C229.594 242.667 228.846 242.012 228.846 241.263C228.846 240.42 229.594 239.765 230.343 239.765H266.832C267.674 239.765 268.329 240.42 268.329 241.263C268.329 242.012 267.674 242.667 266.832 242.667Z" fill="#1B1464"/>
<path d="M266.832 255.023H230.343C229.594 255.023 228.846 254.368 228.846 253.525C228.846 252.683 229.594 252.027 230.343 252.027H266.832C267.674 252.027 268.329 252.683 268.329 253.525C268.329 254.368 267.674 255.023 266.832 255.023Z" fill="#1B1464"/>
<path d="M266.832 267.384H230.343C229.594 267.384 228.846 266.728 228.846 265.886C228.846 265.043 229.594 264.388 230.343 264.388H266.832C267.674 264.388 268.329 265.043 268.329 265.886C268.329 266.728 267.674 267.384 266.832 267.384Z" fill="#1B1464"/>
<path d="M266.832 279.647H230.343C229.594 279.647 228.846 278.992 228.846 278.149C228.846 277.4 229.594 276.745 230.343 276.745H266.832C267.674 276.745 268.329 277.4 268.329 278.149C268.329 278.992 267.674 279.647 266.832 279.647Z" fill="#1B1464"/>
<path d="M266.832 292.004H230.343C229.594 292.004 228.846 291.348 228.846 290.506C228.846 289.663 229.594 289.008 230.343 289.008H266.832C267.674 289.008 268.329 289.663 268.329 290.506C268.329 291.348 267.674 292.004 266.832 292.004Z" fill="#1B1464"/>
<path d="M266.832 304.362H230.343C229.594 304.362 228.846 303.613 228.846 302.864C228.846 302.022 229.594 301.366 230.343 301.366H266.832C267.674 301.366 268.329 302.022 268.329 302.864C268.329 303.707 267.674 304.362 266.832 304.362Z" fill="#1B1464"/>
<path d="M266.832 316.628H230.343C229.594 316.628 228.846 315.972 228.846 315.13C228.846 314.381 229.594 313.632 230.343 313.632H266.832C267.674 313.632 268.329 314.381 268.329 315.13C268.329 315.972 267.674 316.628 266.832 316.628Z" fill="#1B1464"/>
<path d="M266.832 328.985H230.343C229.594 328.985 228.846 328.33 228.846 327.487C228.846 326.645 229.594 325.989 230.343 325.989H266.832C267.674 325.989 268.329 326.645 268.329 327.487C268.329 328.33 267.674 328.985 266.832 328.985Z" fill="#1B1464"/>
<path d="M141.459 32.8627C141.459 34.267 140.336 35.3905 138.932 35.3905C137.529 35.3905 136.406 34.267 136.406 32.8627C136.406 31.4584 137.529 30.335 138.932 30.335C140.336 30.335 141.459 31.4584 141.459 32.8627Z" fill="#2B298E"/>
<path d="M128.175 35.3905C126.865 35.3905 125.742 34.267 125.742 32.8627C125.742 31.4584 126.865 30.335 128.175 30.335C129.578 30.335 130.701 31.4584 130.701 32.8627C130.701 34.267 129.578 35.3905 128.175 35.3905Z" fill="#2B298E"/>
<path d="M136.406 43.6293C136.406 42.225 137.529 41.1016 138.932 41.1016C140.336 41.1016 141.459 42.225 141.459 43.6293C141.459 45.0336 140.336 46.1571 138.932 46.1571C137.529 46.1571 136.406 45.0336 136.406 43.6293Z" fill="#2B298E"/>
<path d="M125.742 43.6293C125.742 42.225 126.865 41.1016 128.175 41.1016C129.578 41.1016 130.701 42.225 130.701 43.6293C130.701 45.0336 129.578 46.1571 128.175 46.1571C126.865 46.1571 125.742 45.0336 125.742 43.6293Z" fill="#2B298E"/>
<path d="M156.334 34.9221V31.5518H156.989V34.9221C156.989 36.0456 157.737 36.8882 158.767 36.8882C159.796 36.8882 160.544 36.0456 160.544 34.9221V31.5518H161.199V34.9221C161.199 36.4201 160.17 37.4499 158.767 37.4499C157.363 37.4499 156.334 36.4201 156.334 34.9221Z" fill="#2B298E"/>
<path d="M162.322 36.5136L162.697 36.0454C163.164 36.5136 163.819 36.7944 164.568 36.7944C165.503 36.7944 165.971 36.3263 165.971 35.8582C165.971 35.2029 165.41 34.922 164.381 34.7347C163.258 34.4539 162.509 34.0794 162.509 33.0496C162.509 32.1134 163.351 31.458 164.474 31.458C165.316 31.458 165.971 31.7389 166.439 32.3006L166.065 32.7687C165.597 32.3006 165.036 32.0197 164.381 32.0197C163.632 32.0197 163.164 32.4878 163.164 33.0496C163.164 33.6113 163.726 33.8922 164.755 34.0794C165.784 34.3603 166.626 34.7347 166.626 35.7646C166.626 36.7008 165.971 37.4498 164.568 37.4498C163.632 37.4498 162.884 37.0753 162.322 36.5136Z" fill="#2B298E"/>
<path d="M168.403 32.2071V34.0795H171.584V34.7349H168.403V36.7009H171.865V37.3563H167.748V31.5518H171.865V32.2071H168.403Z" fill="#2B298E"/>
<path fillRule="evenodd" clipRule="evenodd" d="M175.982 35.203L177.479 37.3563H176.731L175.234 35.2966H173.737V37.3563H173.082V31.5518H175.421C176.637 31.5518 177.573 32.3007 177.573 33.4242C177.573 34.2668 176.918 35.0157 175.982 35.203ZM173.737 34.6413H175.327C176.263 34.6413 176.824 34.1731 176.824 33.4242C176.824 32.5816 176.263 32.2071 175.327 32.2071H173.737V34.6413Z" fill="#2B298E"/>
<path d="M156.152 43.6273V40.3506H157.369V43.5337C157.369 44.4699 158.024 45.1253 158.772 45.1253C159.614 45.1253 160.175 44.4699 160.175 43.5337V40.3506H161.392V43.6273C161.392 45.1253 160.363 46.2487 158.772 46.2487C157.275 46.2487 156.152 45.1253 156.152 43.6273Z" fill="#2B298E"/>
<path d="M162.141 45.2196L162.889 44.377C163.45 44.8451 164.105 45.126 164.76 45.126C165.415 45.126 165.79 44.8451 165.79 44.4706C165.79 44.0961 165.415 44.0025 164.48 43.8153C163.263 43.5344 162.421 43.1599 162.421 42.0365C162.421 40.913 163.263 40.1641 164.573 40.1641C165.509 40.1641 166.257 40.5385 166.819 41.0066L166.164 41.9429C165.696 41.4748 165.135 41.2875 164.573 41.2875C164.012 41.2875 163.731 41.5684 163.731 41.8492C163.731 42.3173 164.012 42.411 164.947 42.6918C166.164 42.9727 167.006 43.3472 167.006 44.377C167.006 45.5005 166.164 46.2494 164.76 46.2494C163.731 46.2494 162.889 45.8749 162.141 45.2196Z" fill="#2B298E"/>
<path fillRule="evenodd" clipRule="evenodd" d="M171.778 45.2189H169.159L168.878 46.1551H167.475L169.814 40.3506H171.217L173.556 46.1551H172.153L171.778 45.2189ZM171.311 44.0954L170.469 42.0358L169.627 44.0954H171.311Z" fill="#2B298E"/>
<path d="M176.736 42.8791H179.356V45.2196C178.795 45.8749 177.859 46.2494 177.017 46.2494C175.333 46.2494 173.836 44.8451 173.836 43.2536C173.836 41.5684 175.333 40.1641 177.017 40.1641C177.859 40.1641 178.795 40.5385 179.356 41.1939L178.42 42.0365C178.046 41.5684 177.485 41.3811 177.017 41.3811C175.988 41.3811 175.146 42.2237 175.146 43.2536C175.146 44.1898 175.988 45.126 177.017 45.126C177.391 45.126 177.766 44.9387 178.14 44.7515V43.8153H176.736V42.8791Z" fill="#2B298E"/>
<path d="M181.601 41.474V42.5975H184.501V43.7209H181.601V45.0316H184.876V46.1551H180.385V40.3506H184.876V41.474H181.601Z" fill="#2B298E"/>
<path d="M189.367 41.474V42.5975H192.361V43.7209H189.367V45.0316H192.641V46.1551H188.15V40.3506H192.641V41.474H189.367Z" fill="#2B298E"/>
<path d="M196.76 43.1592L198.912 46.1551H197.415L196.012 44.1891L194.608 46.1551H193.111L195.263 43.2528L193.111 40.3506H194.608L196.012 42.223L197.415 40.3506H198.912L196.76 43.1592Z" fill="#2B298E"/>
<path fillRule="evenodd" clipRule="evenodd" d="M203.495 45.2189H200.875L200.501 46.1551H199.098L201.437 40.3506H202.84L205.273 46.1551H203.869L203.495 45.2189ZM203.027 44.0954L202.185 42.0358L201.343 44.0954H203.027Z" fill="#2B298E"/>
<path d="M206.02 40.3506H207.236L209.014 43.6273L210.791 40.3506H212.101V46.1551H210.791V42.5039L209.014 45.7806L207.236 42.5039V46.1551H206.02V40.3506Z" fill="#2B298E"/>
<path fillRule="evenodd" clipRule="evenodd" d="M213.225 40.3506H215.844C217.154 40.3506 218.09 41.0996 218.09 42.3166C218.09 43.4401 217.154 44.1891 215.844 44.1891H214.534V46.1551H213.225V40.3506ZM215.751 43.0656C216.312 43.0656 216.78 42.7847 216.78 42.3166C216.78 41.7549 216.312 41.474 215.751 41.474H214.534V43.0656H215.751Z" fill="#2B298E"/>
<path d="M222.954 45.0316V46.1551H218.744V40.3506H220.054V45.0316H222.954Z" fill="#2B298E"/>
<path d="M225.011 41.474V42.5975H227.911V43.7209H225.011V45.0316H228.192V46.1551H223.701V40.3506H228.192V41.474H225.011Z" fill="#2B298E"/>
<path fillRule="evenodd" clipRule="evenodd" d="M253.363 420.171H163.263C155.123 420.171 148.48 413.524 148.48 405.379C148.48 397.234 155.123 390.587 163.263 390.587H253.363C261.503 390.587 268.145 397.234 268.145 405.379C268.145 413.524 261.503 420.171 253.363 420.171ZM163.263 392.085C155.872 392.085 149.977 398.077 149.977 405.379C149.977 412.775 155.872 418.673 163.263 418.673H253.363C260.754 418.673 266.648 412.775 266.648 405.379C266.648 398.077 260.754 392.085 253.363 392.085H163.263Z" fill="#2B298E"/>
<path fillRule="evenodd" clipRule="evenodd" d="M182.913 408.561L181.229 406.221H180.106V408.561H178.609V401.446H181.79C183.381 401.446 184.504 402.383 184.504 403.787C184.504 404.91 183.849 405.753 182.913 406.034L184.597 408.561H182.913ZM180.2 404.817H181.697C182.445 404.817 183.007 404.442 183.007 403.787C183.007 403.225 182.445 402.851 181.697 402.851H180.2V404.817Z" fill="#2B298E"/>
<path d="M187.219 402.757V404.255H190.775V405.659H187.219V407.157H191.149V408.561H185.629V401.446H191.149V402.757H187.219Z" fill="#2B298E"/>
<path fillRule="evenodd" clipRule="evenodd" d="M197.136 407.438H193.955L193.487 408.561H191.803L194.703 401.446H196.387L199.288 408.561H197.604L197.136 407.438ZM196.574 406.127L195.545 403.506L194.422 406.127H196.574Z" fill="#2B298E"/>
<path fillRule="evenodd" clipRule="evenodd" d="M200.221 401.446H202.747C205.179 401.446 206.864 402.851 206.864 405.004C206.864 407.064 205.179 408.561 202.747 408.561H200.221V401.446ZM203.028 407.251C204.337 407.251 205.273 406.315 205.273 405.004C205.273 403.787 204.337 402.851 203.028 402.851H201.718V407.251H203.028Z" fill="#2B298E"/>
<path d="M211.072 401.446H212.569L216.031 406.034V401.446H217.622V408.561H216.031L212.569 403.974V408.561H211.072V401.446Z" fill="#2B298E"/>
<path fillRule="evenodd" clipRule="evenodd" d="M218.748 405.005C218.748 402.945 220.526 401.26 222.584 401.26C224.642 401.26 226.42 402.945 226.42 405.005C226.42 406.971 224.642 408.749 222.584 408.749C220.526 408.749 218.748 406.971 218.748 405.005ZM224.83 405.005C224.83 403.788 223.8 402.664 222.584 402.664C221.368 402.664 220.339 403.788 220.339 405.005C220.339 406.222 221.368 407.345 222.584 407.345C223.8 407.345 224.83 406.222 224.83 405.005Z" fill="#2B298E"/>
<path d="M226.793 401.446H228.477L229.787 406.221L231.377 401.446H233.062L234.652 406.221L235.962 401.446H237.646L235.494 408.561H233.904L232.22 403.693L230.535 408.561H228.945L226.793 401.446Z" fill="#2B298E"/>
<g style="mix-blend-mode:multiply">
<path d="M365.731 187.429H259.446C242.511 187.429 228.664 173.573 228.664 156.534V93.059C228.664 76.02 242.511 62.1641 259.446 62.1641H365.731C382.76 62.1641 396.513 76.02 396.513 93.059V156.534C396.513 173.573 382.76 187.429 365.731 187.429Z" fill="#808080"/>
<path fillRule="evenodd" clipRule="evenodd" d="M259.538 196.323C259.476 196.323 259.445 196.323 259.445 196.323C249.06 196.417 238.674 192.11 231.377 184.714C223.985 177.412 219.681 167.02 219.775 156.628C219.775 156.565 219.775 156.534 219.775 156.534C219.775 135.376 219.775 114.217 219.775 93.059C219.775 93.059 219.775 93.0278 219.775 92.9654C219.681 82.5735 223.985 72.1815 231.377 64.8791C238.674 57.483 249.06 53.1764 259.445 53.2701C259.445 53.2701 259.476 53.2701 259.538 53.2701C294.905 53.2701 330.302 53.2701 365.731 53.2701C376.116 53.1764 386.501 57.483 393.799 64.8791C401.19 72.1815 405.494 82.5735 405.401 92.9654C405.401 93.0278 405.401 93.059 405.401 93.059C405.401 114.217 405.401 135.376 405.401 156.534C405.401 156.534 405.401 156.565 405.401 156.628C405.401 156.628 405.338 157.907 405.213 160.466C404.933 162.994 404.465 167.02 402.407 171.794C400.442 176.569 396.886 182.28 390.899 187.336C387.905 189.77 384.256 192.017 380.045 193.608C375.742 195.293 370.876 196.323 365.731 196.323C294.936 196.323 259.538 196.323 259.538 196.323ZM237.645 93.059C237.645 114.217 237.645 135.376 237.645 156.534C237.645 156.534 237.645 156.565 237.645 156.628C237.645 162.339 239.891 167.956 244.007 172.075C248.124 176.101 253.738 178.442 259.445 178.442C259.445 178.442 259.476 178.442 259.538 178.442C259.538 178.442 294.936 178.442 365.731 178.442C371.531 178.442 376.209 176.195 379.578 173.48C382.852 170.671 384.911 167.581 385.94 164.96C387.063 162.339 387.25 160.185 387.437 158.781C387.53 157.283 387.624 156.628 387.624 156.628H387.53C387.53 156.628 387.53 157.283 387.437 158.781C387.25 160.092 387.063 162.339 385.94 164.96C384.817 167.581 382.852 170.671 379.578 173.48C382.852 170.671 384.911 167.581 385.94 164.96C387.063 162.339 387.25 160.185 387.437 158.781C387.53 157.283 387.624 156.628 387.624 156.628H387.53C387.593 156.565 387.624 156.534 387.624 156.534C387.624 135.376 387.624 114.217 387.624 93.059C387.624 93.059 387.593 93.0278 387.53 92.9654C387.624 87.2545 385.285 81.6373 381.168 77.5179C377.145 73.4922 371.438 71.1517 365.731 71.1517C330.302 71.1517 294.905 71.1517 259.538 71.1517C259.476 71.1517 259.445 71.1517 259.445 71.1517C253.738 71.1517 248.124 73.4922 244.007 77.5179C239.891 81.6373 237.645 87.2545 237.645 92.9654C237.645 93.0278 237.645 93.059 237.645 93.059Z" fill="url(#paint6_linear_1330_2727)"/>
</g>
<path d="M376.867 168.704H270.02C253.179 168.704 239.52 155.035 239.52 138.183V76.2998C239.52 59.448 253.179 45.7793 270.02 45.7793H376.867C393.709 45.7793 407.368 59.448 407.368 76.2998V138.183C407.368 155.035 393.709 168.704 376.867 168.704Z" fill="#2E3192"/>
<path d="M376.87 172.449C376.87 171.201 376.87 170.577 376.87 170.577C305.701 170.577 270.116 170.577 270.116 170.577C270.116 170.577 270.116 171.201 270.116 172.449C270.116 172.449 305.701 172.449 376.87 172.449ZM270.116 172.449C270.116 171.201 270.116 170.577 270.116 170.577C270.054 170.577 270.023 170.577 270.023 170.577C270.023 170.577 270.023 171.201 270.023 172.449C270.023 172.449 270.054 172.449 270.116 172.449ZM245.884 162.432C252.153 168.798 261.041 172.543 270.023 172.449C270.023 171.201 270.023 170.577 270.023 170.577C261.602 170.671 253.088 167.113 247.194 161.121C241.112 155.129 237.651 146.704 237.651 138.184C237.651 138.184 237.027 138.184 235.779 138.184C235.779 147.172 239.428 156.159 245.884 162.432ZM235.779 138.184C237.027 138.184 237.651 138.184 237.651 138.184C237.651 117.587 237.651 96.9596 237.651 76.3005C237.651 76.3005 237.027 76.3005 235.779 76.3005C235.779 96.9596 235.779 117.587 235.779 138.184ZM245.884 52.0526C239.428 58.4189 235.779 67.3129 235.779 76.3005C237.027 76.3005 237.651 76.3005 237.651 76.3005C237.651 67.781 241.112 59.3551 247.194 53.3633C253.088 47.3716 261.602 43.814 270.023 43.9076C270.023 43.9076 270.023 43.2834 270.023 42.0352C261.041 42.0352 252.153 45.6864 245.884 52.0526ZM270.023 42.0352C270.023 43.2834 270.023 43.9076 270.023 43.9076C270.023 43.9076 270.054 43.9076 270.116 43.9076C270.116 43.9076 270.116 43.2834 270.116 42.0352C270.054 42.0352 270.023 42.0352 270.023 42.0352ZM270.116 42.0352C270.116 43.2834 270.116 43.9076 270.116 43.9076C305.67 43.9076 341.223 43.9076 376.776 43.9076C376.776 43.9076 376.776 43.2834 376.776 42.0352C341.223 42.0352 305.67 42.0352 270.116 42.0352ZM376.776 42.0352C376.776 43.2834 376.776 43.9076 376.776 43.9076C376.839 43.9076 376.87 43.9076 376.87 43.9076C376.87 43.9076 376.87 43.2834 376.87 42.0352C376.87 42.0352 376.839 42.0352 376.776 42.0352ZM401.008 52.0526C394.74 45.6864 385.852 42.0352 376.87 42.0352C376.87 43.2834 376.87 43.9076 376.87 43.9076C385.29 43.814 393.804 47.3716 399.699 53.3633C405.78 59.3551 409.242 67.781 409.242 76.3005C409.242 76.3005 409.866 76.3005 411.113 76.3005C411.113 67.3129 407.464 58.4189 401.008 52.0526ZM411.113 76.3005C409.866 76.3005 409.242 76.3005 409.242 76.3005C409.242 96.9596 409.242 117.587 409.242 138.184C409.242 138.184 409.866 138.184 411.113 138.184C411.113 117.587 411.113 96.9596 411.113 76.3005ZM389.126 170.109C392.775 168.705 395.956 166.832 398.576 164.679C403.722 160.372 406.809 155.504 408.493 151.291C410.271 147.172 410.645 143.801 410.926 141.554C411.051 139.308 411.113 138.184 411.113 138.184C409.866 138.184 409.242 138.184 409.242 138.184C409.242 138.184 409.18 139.245 409.055 141.367C408.774 143.427 408.4 146.704 406.716 150.636C405.219 154.568 402.225 159.155 397.36 163.275C392.494 167.207 385.384 170.577 376.87 170.577C376.87 170.577 376.87 171.201 376.87 172.449C381.267 172.449 385.477 171.607 389.126 170.109ZM376.87 170.577C376.87 169.953 376.87 169.329 376.87 168.705C305.701 168.705 270.116 168.705 270.116 168.705C270.116 169.329 270.116 169.953 270.116 170.577C270.116 170.577 305.701 170.577 376.87 170.577ZM270.116 170.577C270.116 169.953 270.116 169.329 270.116 168.705C270.054 168.705 270.023 168.705 270.023 168.705C270.023 169.329 270.023 169.953 270.023 170.577C270.023 170.577 270.054 170.577 270.116 170.577ZM247.194 161.121C253.088 167.113 261.602 170.671 270.023 170.577C270.023 169.953 270.023 169.329 270.023 168.705C262.07 168.798 254.117 165.521 248.504 159.811C242.796 154.193 239.522 146.235 239.522 138.184C238.898 138.184 238.274 138.184 237.651 138.184C237.651 146.704 241.112 155.129 247.194 161.121ZM237.651 138.184C238.274 138.184 238.898 138.184 239.522 138.184C239.522 117.587 239.522 96.9596 239.522 76.3005C238.898 76.3005 238.274 76.3005 237.651 76.3005C237.651 96.9596 237.651 117.587 237.651 138.184ZM247.194 53.3633C241.112 59.3551 237.651 67.781 237.651 76.3005C238.274 76.3005 238.898 76.3005 239.522 76.3005C239.522 68.2491 242.796 60.2913 248.504 54.674C254.117 49.0567 262.07 45.6864 270.023 45.78C270.023 45.1559 270.023 44.5317 270.023 43.9076C261.602 43.814 253.088 47.3716 247.194 53.3633ZM270.023 43.9076C270.023 44.5317 270.023 45.1559 270.023 45.78C270.023 45.78 270.054 45.78 270.116 45.78C270.116 45.1559 270.116 44.5317 270.116 43.9076C270.054 43.9076 270.023 43.9076 270.023 43.9076ZM270.116 43.9076C270.116 44.5317 270.116 45.1559 270.116 45.78C305.67 45.78 341.223 45.78 376.776 45.78C376.776 45.1559 376.776 44.5317 376.776 43.9076C341.223 43.9076 305.67 43.9076 270.116 43.9076ZM376.776 43.9076C376.776 44.5317 376.776 45.1559 376.776 45.78C376.839 45.78 376.87 45.78 376.87 45.78C376.87 45.1559 376.87 44.5317 376.87 43.9076C376.87 43.9076 376.839 43.9076 376.776 43.9076ZM399.699 53.3633C393.804 47.3716 385.29 43.814 376.87 43.9076C376.87 44.5317 376.87 45.1559 376.87 45.78C384.822 45.6864 392.775 49.0567 398.389 54.674C404.096 60.2913 407.371 68.2491 407.371 76.3005C407.994 76.3005 408.618 76.3005 409.242 76.3005C409.242 67.781 405.78 59.3551 399.699 53.3633ZM409.242 76.3005C408.618 76.3005 407.994 76.3005 407.371 76.3005C407.371 96.9596 407.371 117.587 407.371 138.184C407.994 138.184 408.618 138.184 409.242 138.184C409.242 117.587 409.242 96.9596 409.242 76.3005ZM397.36 163.275C402.225 159.155 405.219 154.568 406.716 150.636C408.4 146.704 408.774 143.427 409.055 141.367C409.18 139.245 409.242 138.184 409.242 138.184C408.618 138.184 407.994 138.184 407.371 138.184C407.371 138.184 407.308 139.183 407.184 141.18C406.903 143.146 406.622 146.235 405.032 149.887C403.535 153.632 400.728 157.938 396.237 161.777C391.559 165.521 384.916 168.705 376.87 168.705C376.87 169.329 376.87 169.953 376.87 170.577C385.384 170.577 392.494 167.207 397.36 163.275ZM376.87 168.705C376.87 168.143 376.87 167.55 376.87 166.926C305.701 166.926 270.116 166.926 270.116 166.926C270.116 167.55 270.116 168.143 270.116 168.705C270.116 168.705 305.701 168.705 376.87 168.705ZM270.116 168.705C270.116 168.143 270.116 167.55 270.116 166.926C270.054 166.926 270.023 166.926 270.023 166.926C270.023 167.55 270.023 168.143 270.023 168.705C270.023 168.705 270.054 168.705 270.116 168.705ZM248.504 159.811C254.117 165.521 262.07 168.798 270.023 168.705C270.023 168.143 270.023 167.55 270.023 166.926C262.538 166.926 255.053 163.836 249.813 158.5C244.48 153.163 241.393 145.767 241.393 138.184C240.769 138.184 240.145 138.184 239.522 138.184C239.522 146.235 242.796 154.193 248.504 159.811ZM239.522 138.184C240.145 138.184 240.769 138.184 241.393 138.184C241.393 117.587 241.393 96.9596 241.393 76.3005C240.769 76.3005 240.145 76.3005 239.522 76.3005C239.522 96.9596 239.522 117.587 239.522 138.184ZM248.504 54.674C242.796 60.2913 239.522 68.2491 239.522 76.3005C240.145 76.3005 240.769 76.3005 241.393 76.3005C241.393 68.7172 244.48 61.3211 249.813 55.9847C255.053 50.6483 262.538 47.5588 270.023 47.6524C270.023 47.0283 270.023 46.4041 270.023 45.78C262.07 45.6864 254.117 49.0567 248.504 54.674ZM270.023 45.78C270.023 46.4041 270.023 47.0283 270.023 47.6524C270.023 47.6524 270.054 47.6524 270.116 47.6524C270.116 47.0283 270.116 46.4041 270.116 45.78C270.054 45.78 270.023 45.78 270.023 45.78ZM270.116 45.78C270.116 46.4041 270.116 47.0283 270.116 47.6524C305.67 47.6524 341.223 47.6524 376.776 47.6524C376.776 47.0283 376.776 46.4041 376.776 45.78C341.223 45.78 305.67 45.78 270.116 45.78ZM376.776 45.78C376.776 46.4041 376.776 47.0283 376.776 47.6524C376.839 47.6524 376.87 47.6524 376.87 47.6524C376.87 47.0283 376.87 46.4041 376.87 45.78C376.87 45.78 376.839 45.78 376.776 45.78ZM398.389 54.674C392.775 49.0567 384.822 45.6864 376.87 45.78C376.87 46.4041 376.87 47.0283 376.87 47.6524C384.355 47.5588 391.839 50.6483 397.079 55.9847C402.412 61.3211 405.499 68.7172 405.499 76.3005C406.123 76.3005 406.747 76.3005 407.371 76.3005C407.371 68.2491 404.096 60.2913 398.389 54.674ZM407.371 76.3005C406.747 76.3005 406.123 76.3005 405.499 76.3005C405.499 96.9596 405.499 117.587 405.499 138.184C406.123 138.184 406.747 138.184 407.371 138.184C407.371 117.587 407.371 96.9596 407.371 76.3005ZM396.237 161.777C400.728 157.938 403.535 153.632 405.032 149.887C406.622 146.235 406.903 143.146 407.184 141.18C407.308 139.183 407.371 138.184 407.371 138.184C406.747 138.184 406.123 138.184 405.499 138.184C405.499 138.184 405.468 139.12 405.406 140.993C405.032 142.865 404.751 145.674 403.348 149.231C401.944 152.695 399.324 156.721 395.021 160.372C390.623 163.93 384.448 166.832 376.87 166.926C376.87 167.55 376.87 168.143 376.87 168.705C384.916 168.705 391.559 165.521 396.237 161.777ZM376.87 166.926C376.87 166.614 376.87 166.302 376.87 165.99C305.701 165.99 270.116 165.99 270.116 165.99C270.116 166.302 270.116 166.614 270.116 166.926C270.116 166.926 305.701 166.926 376.87 166.926ZM270.116 166.926C270.116 166.614 270.116 166.302 270.116 165.99C270.054 165.99 270.023 165.99 270.023 165.99C270.023 166.302 270.023 166.614 270.023 166.926C270.023 166.926 270.054 166.926 270.116 166.926ZM249.813 158.5C255.053 163.836 262.538 166.926 270.023 166.926C270.023 166.614 270.023 166.302 270.023 165.99C262.725 165.99 255.614 162.994 250.468 157.845C245.323 152.695 242.329 145.487 242.329 138.184C242.017 138.184 241.705 138.184 241.393 138.184C241.393 145.767 244.48 153.163 249.813 158.5ZM241.393 138.184C241.705 138.184 242.017 138.184 242.329 138.184C242.329 117.587 242.329 96.9596 242.329 76.3005C242.017 76.3005 241.705 76.3005 241.393 76.3005C241.393 96.9596 241.393 117.587 241.393 138.184ZM249.813 55.9847C244.48 61.3211 241.393 68.7172 241.393 76.3005C241.705 76.3005 242.017 76.3005 242.329 76.3005C242.329 68.998 245.323 61.7892 250.468 56.6401C255.614 51.4909 262.725 48.495 270.023 48.495C270.023 48.2454 270.023 47.9645 270.023 47.6524C262.538 47.5588 255.053 50.6483 249.813 55.9847ZM270.023 47.6524C270.023 47.9645 270.023 48.2454 270.023 48.495C270.023 48.495 270.054 48.495 270.116 48.495C270.116 48.2454 270.116 47.9645 270.116 47.6524C270.054 47.6524 270.023 47.6524 270.023 47.6524ZM270.116 47.6524C270.116 47.9645 270.116 48.2454 270.116 48.495C305.67 48.495 341.223 48.495 376.776 48.495C376.776 48.2454 376.776 47.9645 376.776 47.6524C341.223 47.6524 305.67 47.6524 270.116 47.6524ZM376.776 47.6524C376.776 47.9645 376.776 48.2454 376.776 48.495C376.839 48.495 376.87 48.495 376.87 48.495C376.87 48.2454 376.87 47.9645 376.87 47.6524C376.87 47.6524 376.839 47.6524 376.776 47.6524ZM397.079 55.9847C391.839 50.6483 384.355 47.5588 376.87 47.6524C376.87 47.9645 376.87 48.2454 376.87 48.495C384.167 48.495 391.278 51.4909 396.424 56.6401C401.57 61.7892 404.564 68.998 404.564 76.3005C404.876 76.3005 405.188 76.3005 405.499 76.3005C405.499 68.7172 402.412 61.3211 397.079 55.9847ZM405.499 76.3005C405.188 76.3005 404.876 76.3005 404.564 76.3005C404.564 96.9596 404.564 117.587 404.564 138.184C404.876 138.184 405.188 138.184 405.499 138.184C405.499 117.587 405.499 96.9596 405.499 76.3005ZM395.021 160.372C399.324 156.721 401.944 152.695 403.348 149.231C404.751 145.674 405.032 142.865 405.406 140.993C405.468 139.12 405.499 138.184 405.499 138.184C405.188 138.184 404.876 138.184 404.564 138.184C404.564 138.184 404.533 139.089 404.47 140.899C404.19 142.678 403.909 145.487 402.412 148.857C401.102 152.227 398.576 156.159 394.459 159.623C390.249 163.087 384.167 165.896 376.87 165.99C376.87 166.302 376.87 166.614 376.87 166.926C384.448 166.832 390.623 163.93 395.021 160.372ZM376.87 165.99C376.87 165.802 376.87 165.646 376.87 165.521C305.701 165.521 270.116 165.521 270.116 165.521C270.116 165.646 270.116 165.802 270.116 165.99C270.116 165.99 305.701 165.99 376.87 165.99ZM270.116 165.99C270.116 165.802 270.116 165.646 270.116 165.521C270.054 165.521 270.023 165.521 270.023 165.521C270.023 165.646 270.023 165.802 270.023 165.99C270.023 165.99 270.054 165.99 270.116 165.99ZM250.468 157.845C255.614 162.994 262.725 165.99 270.023 165.99C270.023 165.802 270.023 165.646 270.023 165.521C262.912 165.521 255.801 162.619 250.749 157.47C245.697 152.414 242.796 145.393 242.796 138.184C242.609 138.184 242.453 138.184 242.329 138.184C242.329 145.487 245.323 152.695 250.468 157.845ZM242.329 138.184C242.453 138.184 242.609 138.184 242.796 138.184C242.796 117.587 242.796 96.9596 242.796 76.3005C242.609 76.3005 242.453 76.3005 242.329 76.3005C242.329 96.9596 242.329 117.587 242.329 138.184ZM250.468 56.6401C245.323 61.7892 242.329 68.998 242.329 76.3005C242.453 76.3005 242.609 76.3005 242.796 76.3005C242.796 69.0917 245.697 62.0701 250.749 57.0145C255.801 51.959 262.912 48.9631 270.023 48.9631C270.023 48.8383 270.023 48.6823 270.023 48.495C262.725 48.495 255.614 51.4909 250.468 56.6401ZM270.023 48.495C270.023 48.6823 270.023 48.8383 270.023 48.9631C270.023 48.9631 270.054 48.9631 270.116 48.9631C270.116 48.8383 270.116 48.6823 270.116 48.495C270.054 48.495 270.023 48.495 270.023 48.495ZM270.116 48.495C270.116 48.6823 270.116 48.8383 270.116 48.9631C305.67 48.9631 341.223 48.9631 376.776 48.9631C376.776 48.8383 376.776 48.6823 376.776 48.495C341.223 48.495 305.67 48.495 270.116 48.495ZM376.776 48.495C376.776 48.6823 376.776 48.8383 376.776 48.9631C376.839 48.9631 376.87 48.9631 376.87 48.9631C376.87 48.8383 376.87 48.6823 376.87 48.495C376.87 48.495 376.839 48.495 376.776 48.495ZM396.424 56.6401C391.278 51.4909 384.167 48.495 376.87 48.495C376.87 48.6823 376.87 48.8383 376.87 48.9631C383.98 48.9631 391.091 51.959 396.143 57.0145C401.196 62.0701 404.096 69.0917 404.096 76.3005C404.283 76.3005 404.439 76.3005 404.564 76.3005C404.564 68.998 401.57 61.7892 396.424 56.6401ZM404.564 76.3005C404.439 76.3005 404.283 76.3005 404.096 76.3005C404.096 96.9596 404.096 117.587 404.096 138.184C404.283 138.184 404.439 138.184 404.564 138.184C404.564 117.587 404.564 96.9596 404.564 76.3005ZM394.459 159.623C398.576 156.159 401.102 152.227 402.412 148.857C403.909 145.487 404.19 142.678 404.47 140.899C404.533 139.089 404.564 138.184 404.564 138.184C404.439 138.184 404.283 138.184 404.096 138.184C404.096 138.184 404.065 139.089 404.002 140.899C403.722 142.678 403.441 145.393 402.038 148.67C400.728 151.946 398.202 155.785 394.085 159.342C389.968 162.619 384.074 165.428 376.87 165.521C376.87 165.646 376.87 165.802 376.87 165.99C384.167 165.896 390.249 163.087 394.459 159.623ZM376.87 165.521C376.87 165.521 376.87 165.365 376.87 165.053C305.701 165.053 270.116 165.053 270.116 165.053C270.116 165.365 270.116 165.521 270.116 165.521C270.116 165.521 305.701 165.521 376.87 165.521ZM270.116 165.521C270.116 165.521 270.116 165.365 270.116 165.053C270.054 165.053 270.023 165.053 270.023 165.053C270.023 165.365 270.023 165.521 270.023 165.521C270.023 165.521 270.054 165.521 270.116 165.521ZM250.749 157.47C255.801 162.619 262.912 165.521 270.023 165.521C270.023 165.521 270.023 165.365 270.023 165.053C263.006 165.053 256.082 162.151 251.123 157.189C246.071 152.227 243.264 145.299 243.264 138.184C242.952 138.184 242.796 138.184 242.796 138.184C242.796 145.393 245.697 152.414 250.749 157.47ZM242.796 138.184C242.796 138.184 242.952 138.184 243.264 138.184C243.264 117.587 243.264 96.9596 243.264 76.3005C242.952 76.3005 242.796 76.3005 242.796 76.3005C242.796 96.9596 242.796 117.587 242.796 138.184ZM250.749 57.0145C245.697 62.0701 242.796 69.0917 242.796 76.3005C242.796 76.3005 242.952 76.3005 243.264 76.3005C243.264 69.2789 246.071 62.2573 251.123 57.2954C256.082 52.3335 263.006 49.4312 270.023 49.4312C270.023 49.1192 270.023 48.9631 270.023 48.9631C262.912 48.9631 255.801 51.959 250.749 57.0145ZM270.023 48.9631C270.023 48.9631 270.023 49.1192 270.023 49.4312C270.023 49.4312 270.054 49.4312 270.116 49.4312C270.116 49.1192 270.116 48.9631 270.116 48.9631C270.054 48.9631 270.023 48.9631 270.023 48.9631ZM270.116 48.9631C270.116 48.9631 270.116 49.1192 270.116 49.4312C305.67 49.4312 341.223 49.4312 376.776 49.4312C376.776 49.1192 376.776 48.9631 376.776 48.9631C341.223 48.9631 305.67 48.9631 270.116 48.9631ZM376.776 48.9631C376.776 48.9631 376.776 49.1192 376.776 49.4312C376.839 49.4312 376.87 49.4312 376.87 49.4312C376.87 49.1192 376.87 48.9631 376.87 48.9631C376.87 48.9631 376.839 48.9631 376.776 48.9631ZM396.143 57.0145C391.091 51.959 383.98 48.9631 376.87 48.9631C376.87 48.9631 376.87 49.1192 376.87 49.4312C383.887 49.4312 390.81 52.3335 395.769 57.2954C400.821 62.2573 403.628 69.2789 403.628 76.3005C403.94 76.3005 404.096 76.3005 404.096 76.3005C404.096 69.0917 401.196 62.0701 396.143 57.0145ZM404.096 76.3005C404.096 76.3005 403.94 76.3005 403.628 76.3005C403.628 96.9596 403.628 117.587 403.628 138.184C403.94 138.184 404.096 138.184 404.096 138.184C404.096 117.587 404.096 96.9596 404.096 76.3005ZM394.085 159.342C398.202 155.785 400.728 151.946 402.038 148.67C403.441 145.393 403.722 142.678 404.002 140.899C404.065 139.089 404.096 138.184 404.096 138.184C404.096 138.184 403.94 138.184 403.628 138.184C403.628 138.184 403.597 139.058 403.535 140.805C403.254 142.584 402.973 145.206 401.57 148.482C400.26 151.759 397.827 155.504 393.804 158.968C389.781 162.245 383.887 165.053 376.87 165.053C376.87 165.365 376.87 165.521 376.87 165.521C384.074 165.428 389.968 162.619 394.085 159.342Z" fill="url(#paint7_linear_1330_2727)"/>
<path style="mix-blend-mode:screen" d="M243.729 136.687C243.729 144.644 246.91 151.947 252.149 157.19C257.482 162.432 264.686 165.709 272.733 165.709C289.636 165.709 306.539 165.709 323.443 165.709C323.505 146.236 323.505 126.763 323.443 107.29C323.443 103.482 323.474 99.6751 323.536 95.8678C297.339 95.8678 269.645 92.9655 243.729 96.9913C243.729 110.223 243.729 123.455 243.729 136.687ZM243.729 77.7989C243.729 84.2276 243.729 90.625 243.729 96.9913C269.645 92.9655 297.339 95.8678 323.536 95.8678C323.536 81.3253 323.505 66.814 323.443 52.334C306.508 52.334 288.451 51.8659 271.423 51.8659C263.376 51.8659 255.517 54.4873 250.184 59.5428C246.068 64.5983 243.729 70.871 243.729 77.7989ZM250.184 59.5428C255.517 54.4873 263.376 51.8659 271.423 51.8659C288.451 51.8659 306.508 52.334 323.443 52.334C323.443 51.1481 323.443 49.9622 323.443 48.7764C306.539 48.7764 289.636 48.7764 272.733 48.7764C264.686 48.7764 257.482 52.0531 252.149 57.2959C251.463 58.0449 250.808 58.7938 250.184 59.5428ZM323.443 107.29C323.505 126.763 323.505 146.236 323.443 165.709C340.346 165.709 357.25 165.709 374.153 165.709C382.199 165.709 389.403 162.432 394.736 157.19C399.976 151.947 403.157 144.644 403.157 136.687C403.157 123.455 403.157 110.223 403.157 96.9913C377.24 92.9655 349.64 95.8678 323.536 95.8678C323.474 99.6751 323.443 103.482 323.443 107.29ZM323.536 95.8678C349.64 95.8678 377.24 92.9655 403.157 96.9913C403.157 90.625 403.157 84.2276 403.157 77.7989C403.157 70.871 400.818 64.5983 396.795 59.5428C391.368 54.4873 383.509 51.8659 375.463 51.8659C358.435 51.8659 340.471 52.334 323.443 52.334C323.505 66.814 323.536 81.3253 323.536 95.8678ZM323.443 52.334C340.471 52.334 358.435 51.8659 375.463 51.8659C383.509 51.8659 391.368 54.4873 396.795 59.5428C396.109 58.7938 395.423 58.0449 394.736 57.2959C389.403 52.0531 382.199 48.7764 374.153 48.7764C357.25 48.7764 340.346 48.7764 323.443 48.7764C323.443 49.9622 323.443 51.1481 323.443 52.334Z" fill="url(#paint8_linear_1330_2727)"/>
<g style="mix-blend-mode:multiply">
<path d="M418.314 355.854H252.524C235.589 355.854 221.742 342.092 221.742 325.053V261.484C221.742 244.445 235.589 230.683 252.524 230.683H418.314C435.343 230.683 449.19 244.445 449.19 261.484V325.053C449.19 342.092 435.343 355.854 418.314 355.854Z" fill="#808080"/>
<path fillRule="evenodd" clipRule="evenodd" d="M252.617 364.842C252.554 364.842 252.523 364.842 252.523 364.842C242.138 364.842 231.752 360.535 224.455 353.139C217.063 345.837 212.759 335.445 212.853 325.053C212.853 303.895 212.853 282.705 212.853 261.484C212.759 251.092 217.063 240.7 224.455 233.398C231.752 226.002 242.138 221.695 252.523 221.695C252.523 221.695 252.554 221.695 252.617 221.695C287.983 221.695 382.947 221.695 418.314 221.695C418.376 221.695 418.407 221.695 418.407 221.695C428.793 221.695 439.178 226.002 446.476 233.398C453.867 240.7 458.171 251.092 458.077 261.484C458.077 282.705 458.077 303.895 458.077 325.053C458.077 325.053 458.015 326.364 457.89 328.985C457.516 331.513 457.142 335.445 455.083 340.313C453.118 345.088 449.563 350.799 443.575 355.761C440.488 358.195 436.932 360.442 432.628 362.127C428.418 363.812 423.553 364.842 418.314 364.842C347.581 364.842 252.617 364.842 252.617 364.842ZM230.723 261.484C230.723 282.705 230.723 303.895 230.723 325.053C230.723 330.858 233.062 336.475 237.085 340.501C241.202 344.62 246.816 346.96 252.523 346.96C252.523 346.96 252.554 346.96 252.617 346.96C252.617 346.96 347.581 346.96 418.314 346.96C424.114 346.96 428.886 344.62 432.254 341.998C435.529 339.19 437.494 336.1 438.523 333.479C439.739 330.764 439.926 328.611 440.113 327.206C439.833 328.611 439.739 330.764 438.523 333.479C439.739 330.764 439.926 328.611 440.113 327.206C440.207 325.802 440.207 325.053 440.207 325.053C440.207 303.895 440.207 282.705 440.207 261.484C440.207 255.773 437.868 250.063 433.845 246.037C429.728 241.917 424.114 239.577 418.407 239.577C418.345 239.577 418.314 239.577 418.314 239.577C382.947 239.577 287.983 239.577 252.617 239.577C252.554 239.577 252.523 239.577 252.523 239.577C246.816 239.577 241.202 241.917 237.085 246.037C233.062 250.063 230.723 255.773 230.723 261.484Z" fill="url(#paint9_linear_1330_2727)"/>
</g>
<path d="M430.759 339.189H264.407C247.566 339.189 233.812 325.52 233.812 308.669V246.785C233.812 229.933 247.566 216.171 264.407 216.171H430.759C447.6 216.171 461.26 229.933 461.26 246.785V308.669C461.26 325.52 447.6 339.189 430.759 339.189Z" fill="#FF130D"/>
<path fillRule="evenodd" clipRule="evenodd" d="M264.407 342.934C255.425 342.934 246.443 339.282 240.175 332.916C233.813 326.55 230.07 317.656 230.164 308.668C230.164 288.009 230.164 267.381 230.164 246.785C230.07 237.797 233.813 228.809 240.175 222.537C246.443 216.171 255.425 212.426 264.407 212.519C299.961 212.519 395.112 212.519 430.666 212.519C430.728 212.519 430.759 212.519 430.759 212.519C439.741 212.426 448.629 216.171 454.898 222.537C461.354 228.809 465.003 237.797 465.003 246.785C465.003 267.381 465.003 288.009 465.003 308.668C465.003 308.668 464.94 309.792 464.816 312.039C464.441 314.192 464.161 317.656 462.383 321.775C460.699 325.895 457.611 330.763 452.465 335.163C449.846 337.316 446.665 339.189 443.016 340.593C439.367 341.997 435.157 342.934 430.759 342.934C359.559 342.934 264.407 342.934 264.407 342.934ZM264.407 335.444C264.407 335.444 359.559 335.444 430.759 335.444V335.537C437.776 335.444 443.671 332.729 447.694 329.452C451.717 325.988 454.15 322.15 455.459 318.967C454.15 322.15 451.717 325.988 447.694 329.359C443.671 332.729 437.776 335.444 430.759 335.444V335.537C437.776 335.444 443.671 332.729 447.694 329.452C451.717 325.988 454.15 322.15 455.459 318.967C456.863 315.69 457.143 313.068 457.424 311.29C457.487 309.542 457.518 308.668 457.518 308.668C457.518 288.009 457.518 267.381 457.518 246.785C457.518 239.669 454.711 232.741 449.659 227.78C444.7 222.818 437.776 219.915 430.759 219.915C430.759 219.915 430.728 219.915 430.666 219.915C395.112 219.915 299.961 219.915 264.407 219.915C257.297 219.915 250.373 222.818 245.414 227.78C240.456 232.741 237.555 239.669 237.555 246.785C237.555 267.381 237.555 288.009 237.555 308.668C237.555 315.69 240.456 322.711 245.414 327.673C250.373 332.635 257.297 335.538 264.407 335.444Z" fill="url(#paint10_linear_1330_2727)"/>
<path style="mix-blend-mode:screen" d="M238.02 305.673C238.02 313.631 241.294 320.933 246.534 326.176C251.773 331.419 258.977 334.696 267.024 334.696C283.958 334.696 330.645 334.696 347.58 334.696C347.58 315.222 347.58 295.749 347.58 276.276C347.58 272.469 347.58 268.661 347.58 264.854C321.383 264.76 263.936 261.952 238.02 265.978C238.02 279.209 238.02 292.441 238.02 305.673ZM238.02 246.785C238.02 253.151 238.02 259.549 238.02 265.978C263.936 261.952 321.383 264.76 347.58 264.854C347.58 250.312 347.58 235.8 347.58 221.32C330.552 221.32 298.179 220.852 272.45 220.852C260.287 220.759 249.808 223.474 244.475 228.529C240.452 233.585 238.02 239.857 238.02 246.785ZM244.475 228.529C249.808 223.474 260.287 220.759 272.45 220.852C298.179 220.852 330.552 221.32 347.58 221.32C347.58 220.134 347.58 218.949 347.58 217.763C330.645 217.763 283.958 217.763 267.024 217.763C258.977 217.763 251.773 221.039 246.534 226.282C245.785 227.031 245.099 227.78 244.475 228.529ZM347.58 276.276C347.58 295.749 347.58 315.222 347.58 334.696C364.514 334.696 411.201 334.696 428.043 334.696C436.089 334.696 443.293 331.419 448.626 326.176C453.865 320.933 457.047 313.631 457.047 305.673C457.047 292.441 457.047 279.209 457.047 265.978C431.13 261.952 373.777 264.76 347.58 264.854C347.58 268.661 347.58 272.469 347.58 276.276ZM347.58 264.854C373.777 264.76 431.13 261.952 457.047 265.978C457.047 259.549 457.047 253.151 457.047 246.785C457.047 239.857 454.707 233.585 450.591 228.529C445.258 223.474 434.873 220.759 422.616 220.852C396.98 220.852 364.608 221.32 347.58 221.32C347.58 235.8 347.58 250.312 347.58 264.854ZM347.58 221.32C364.608 221.32 396.98 220.852 422.616 220.852C434.873 220.759 445.258 223.474 450.591 228.529C449.967 227.78 449.312 227.031 448.626 226.282C443.293 221.039 436.089 217.763 428.043 217.763C411.201 217.763 364.514 217.763 347.58 217.763C347.58 218.949 347.58 220.134 347.58 221.32Z" fill="url(#paint11_linear_1330_2727)"/>
<g style="mix-blend-mode:multiply">
<path d="M152.876 278.805H46.684C29.6558 278.805 15.9023 265.043 15.9023 248.004V184.435C15.9023 167.396 29.6558 153.634 46.684 153.634H152.876C169.904 153.634 183.751 167.396 183.751 184.435V248.004C183.751 265.043 169.904 278.805 152.876 278.805Z" fill="#808080"/>
<path fillRule="evenodd" clipRule="evenodd" d="M46.6854 287.793C36.3001 287.793 25.9148 283.487 18.617 276.091C11.2257 268.788 6.92188 258.396 6.92188 248.004C6.92188 226.783 6.92188 205.594 6.92188 184.435C6.92188 174.044 11.2257 163.652 18.617 156.349C25.9148 148.953 36.3001 144.646 46.6854 144.646C82.114 144.646 117.511 144.646 152.877 144.646C152.877 144.646 152.909 144.646 152.971 144.646C163.356 144.646 173.742 148.953 181.039 156.349C188.431 163.652 192.641 174.044 192.641 184.435C192.641 205.594 192.641 226.783 192.641 248.004C192.641 248.004 192.579 249.315 192.454 251.936C192.08 254.464 191.612 258.396 189.647 263.264C187.682 268.039 184.127 273.656 178.139 278.712C175.052 281.146 171.403 283.393 167.192 285.078C162.982 286.763 158.117 287.793 152.877 287.793C82.0828 287.793 46.6854 287.793 46.6854 287.793ZM24.7921 184.435C24.7921 205.594 24.7921 226.783 24.7921 248.004C24.7921 253.809 27.1311 259.426 31.2478 263.452C35.2709 267.571 40.8846 269.912 46.6854 269.912C46.6854 269.912 82.0828 269.912 152.877 269.912C158.678 269.818 163.45 267.571 166.818 264.95C169.999 262.141 172.058 259.052 173.087 256.337C174.209 253.715 174.397 251.562 174.677 250.158C174.677 248.753 174.771 248.004 174.771 248.004C174.771 226.783 174.771 205.594 174.771 184.435C174.771 178.631 172.432 173.014 168.409 168.988C164.292 164.869 158.678 162.528 152.877 162.528C117.511 162.528 82.114 162.528 46.6854 162.528C40.8846 162.528 35.2709 164.869 31.2478 168.988C27.1311 173.014 24.7921 178.631 24.7921 184.435Z" fill="url(#paint12_linear_1330_2727)"/>
</g>
<path d="M141.092 262.141H34.2451C17.4041 262.141 3.74414 248.473 3.74414 231.621V169.737C3.74414 152.792 17.4041 139.123 34.2451 139.123H141.092C157.933 139.123 171.593 152.792 171.593 169.737V231.621C171.593 248.473 157.933 262.141 141.092 262.141Z" fill="#FF130D"/>
<path fillRule="evenodd" clipRule="evenodd" d="M34.337 265.887C34.2746 265.887 34.2434 265.887 34.2434 265.887C25.2615 265.887 16.3732 262.236 10.1046 255.869C3.74244 249.503 0 240.609 0 231.621C0 210.962 0 190.335 0 169.738C0 169.675 0 169.644 0 169.644C0 160.75 3.74244 151.763 10.1046 145.49C16.3732 139.124 25.2615 135.379 34.2434 135.379C34.2434 135.379 34.2746 135.379 34.337 135.379C69.8903 135.379 105.444 135.379 140.997 135.379C141.059 135.379 141.09 135.379 141.09 135.379C150.072 135.379 158.961 139.124 165.229 145.49C171.685 151.763 175.334 160.75 175.334 169.644C175.334 169.644 175.334 169.675 175.334 169.738C175.334 190.335 175.334 210.962 175.334 231.621C175.334 231.621 175.271 232.745 175.147 234.992C174.866 237.145 174.492 240.609 172.714 244.728C171.03 248.848 167.943 253.716 162.797 258.116C160.177 260.176 156.996 262.142 153.347 263.546C149.698 264.951 145.488 265.887 141.09 265.887C69.9215 265.887 34.337 265.887 34.337 265.887ZM34.337 258.397C34.337 258.397 69.9215 258.397 141.09 258.397C148.107 258.397 154.002 255.588 158.025 252.312C162.048 248.941 164.481 245.103 165.791 241.826C167.194 238.643 167.475 235.928 167.755 234.243C167.818 232.495 167.849 231.621 167.849 231.621C167.849 210.962 167.849 190.335 167.849 169.738C167.849 169.738 167.849 169.707 167.849 169.644C167.849 162.623 165.042 155.695 159.99 150.733C155.031 145.771 148.107 142.869 141.09 142.869C141.09 142.869 141.059 142.869 140.997 142.869C105.444 142.869 69.8903 142.869 34.337 142.869C34.2746 142.869 34.2434 142.869 34.2434 142.869C27.2263 142.869 20.3028 145.771 15.344 150.733C10.2917 155.695 7.4849 162.623 7.4849 169.644C7.4849 169.707 7.4849 169.738 7.4849 169.738C7.4849 190.335 7.4849 210.962 7.4849 231.621C7.4849 238.643 10.2917 245.571 15.344 250.533C20.3028 255.588 27.2263 258.397 34.2434 258.397C34.2434 258.397 34.2746 258.397 34.337 258.397Z" fill="url(#paint13_linear_1330_2727)"/>
<path style="mix-blend-mode:screen" d="M7.95117 227.03C7.95117 234.988 11.1323 242.291 16.3717 247.533C21.7047 252.776 28.9089 256.053 36.9552 256.053C53.8586 256.053 70.762 256.053 87.6654 256.053C87.7277 236.58 87.7589 217.107 87.7589 197.633C87.7589 193.826 87.7589 190.019 87.7589 186.212C61.5618 186.212 33.8676 183.309 7.95117 187.335C7.95117 200.567 7.95117 213.799 7.95117 227.03ZM7.95117 168.143C7.95117 174.571 7.95117 180.969 7.95117 187.335C33.8676 183.309 61.5618 186.212 87.7589 186.212C87.7589 171.669 87.7277 157.158 87.6654 142.678C70.7308 142.678 52.6734 142.21 35.6453 142.21C27.599 142.21 19.7399 144.831 14.4069 149.887C10.2902 154.942 7.95117 161.215 7.95117 168.143ZM14.4069 149.887C19.7399 144.831 27.599 142.21 35.6453 142.21C52.6734 142.21 70.7308 142.678 87.6654 142.678C87.6654 141.492 87.6654 140.306 87.6654 139.12C70.762 139.12 53.8586 139.12 36.9552 139.12C28.9089 139.12 21.7047 142.397 16.3717 147.64C15.6856 148.389 15.0306 149.138 14.4069 149.887ZM87.7589 197.633C87.7589 217.107 87.7277 236.58 87.6654 256.053C104.569 256.053 121.472 256.053 138.376 256.053C146.422 256.053 153.626 252.776 158.959 247.533C164.199 242.291 167.38 234.988 167.38 227.03C167.38 213.799 167.38 200.567 167.38 187.335C141.463 183.309 113.863 186.212 87.7589 186.212C87.7589 190.019 87.7589 193.826 87.7589 197.633ZM87.7589 186.212C113.863 186.212 141.463 183.309 167.38 187.335C167.38 180.969 167.38 174.571 167.38 168.143C167.38 161.215 165.041 154.942 161.017 149.887C155.591 144.831 147.732 142.21 139.685 142.21C122.751 142.21 104.694 142.678 87.6654 142.678C87.7277 157.158 87.7589 171.669 87.7589 186.212ZM87.6654 142.678C104.694 142.678 122.751 142.21 139.685 142.21C147.732 142.21 155.591 144.831 161.017 149.887C160.331 149.138 159.645 148.389 158.959 147.64C153.626 142.397 146.422 139.12 138.376 139.12C121.472 139.12 104.569 139.12 87.6654 139.12C87.6654 140.306 87.6654 141.492 87.6654 142.678Z" fill="url(#paint14_linear_1330_2727)"/>
<path d="M334.39 80.5152C334.39 86.5069 329.524 91.3753 323.537 91.3753C317.455 91.3753 312.59 86.5069 312.59 80.5152C312.59 74.4298 317.455 69.5615 323.537 69.5615C329.524 69.5615 334.39 74.4298 334.39 80.5152Z" fill="white"/>
<path d="M323.535 94.2773C315.021 94.2773 308.098 101.205 308.098 109.725C308.098 112.253 310.156 114.312 312.682 114.312H334.295C336.821 114.312 338.879 112.253 338.879 109.725C338.879 101.205 331.956 94.2773 323.535 94.2773Z" fill="white"/>
<path d="M356.651 126.857H290.41C289.194 126.857 288.352 125.92 288.352 124.797C288.352 123.674 289.194 122.737 290.41 122.737H356.651C357.774 122.737 358.71 123.674 358.71 124.797C358.71 125.92 357.774 126.857 356.651 126.857Z" fill="white"/>
<path d="M356.651 136.032H290.41C289.194 136.032 288.352 135.096 288.352 133.973C288.352 132.849 289.194 131.913 290.41 131.913H356.651C357.774 131.913 358.71 132.849 358.71 133.973C358.71 135.096 357.774 136.032 356.651 136.032Z" fill="white"/>
<path d="M138.561 67.9695C138.561 70.0291 136.877 71.7143 134.819 71.7143C132.76 71.7143 131.076 70.0291 131.076 67.9695C131.076 65.8162 132.76 64.2246 134.819 64.2246C136.877 64.2246 138.561 65.8162 138.561 67.9695Z" fill="#2B298E"/>
<path d="M134.819 72.6504C131.919 72.6504 129.58 75.0845 129.58 77.9868C129.58 78.8294 130.235 79.5784 131.171 79.5784H138.562C139.404 79.5784 140.152 78.8294 140.152 77.9868C140.152 75.0845 137.813 72.6504 134.819 72.6504Z" fill="#2B298E"/>
<path d="M146.232 83.8828H123.497C123.122 83.8828 122.748 83.5083 122.748 83.1339C122.748 82.7594 123.122 82.4785 123.497 82.4785H146.232C146.606 82.4785 146.98 82.7594 146.98 83.1339C146.98 83.5083 146.606 83.8828 146.232 83.8828Z" fill="#2B298E"/>
<path d="M146.232 86.9727H123.497C123.122 86.9727 122.748 86.6918 122.748 86.3173C122.748 85.8492 123.122 85.5684 123.497 85.5684H146.232C146.606 85.5684 146.98 85.8492 146.98 86.3173C146.98 86.6918 146.606 86.9727 146.232 86.9727Z" fill="#2B298E"/>
<path d="M124.068 190.612H51.7448C46.5989 190.612 42.3887 194.825 42.3887 199.974C42.3887 205.217 46.5989 209.43 51.7448 209.43H124.068C129.307 209.43 133.517 205.217 133.517 199.974C133.517 194.825 129.307 190.612 124.068 190.612Z" fill="white"/>
<path d="M51.7448 182.091H124.068C129.307 182.091 133.517 177.878 133.517 172.636C133.517 167.486 129.307 163.273 124.068 163.273H51.7448C46.5989 163.273 42.3887 167.486 42.3887 172.636C42.3887 177.878 46.5989 182.091 51.7448 182.091Z" fill="white"/>
<path d="M99.8303 223.754H45.8455C44.7227 223.754 43.7871 222.912 43.7871 221.695C43.7871 220.571 44.7227 219.729 45.8455 219.729H99.8303C100.953 219.729 101.889 220.571 101.889 221.695C101.889 222.912 100.953 223.754 99.8303 223.754Z" fill="white"/>
<path d="M130.051 232.18H45.8455C44.7227 232.18 43.7871 231.244 43.7871 230.12C43.7871 228.997 44.7227 228.061 45.8455 228.061H130.051C131.173 228.061 132.109 228.997 132.109 230.12C132.109 231.244 131.173 232.18 130.051 232.18Z" fill="white"/>
<path d="M347.581 328.611C346.365 328.611 345.336 327.581 345.336 326.364V229.653C345.336 228.436 346.365 227.406 347.581 227.406C348.798 227.406 349.827 228.436 349.827 229.653V326.364C349.827 327.581 348.798 328.611 347.581 328.611Z" fill="white"/>
<path d="M413.073 301.18H380.326C379.203 301.18 378.361 300.244 378.361 299.12C378.361 297.997 379.203 297.061 380.326 297.061H413.073C414.195 297.061 415.131 297.997 415.131 299.12C415.131 300.244 414.195 301.18 413.073 301.18Z" fill="white"/>
<path d="M400.629 309.137H380.326C379.203 309.137 378.361 308.201 378.361 307.077C378.361 305.954 379.203 305.018 380.326 305.018H400.629C401.752 305.018 402.687 305.954 402.687 307.077C402.687 308.201 401.752 309.137 400.629 309.137Z" fill="white"/>
<path d="M383.789 290.133C378.456 290.133 374.152 285.826 374.152 280.583V250.531C374.152 245.288 378.456 240.981 383.789 240.981C389.029 240.981 393.332 245.288 393.332 250.531V280.583C393.332 285.826 389.029 290.133 383.789 290.133Z" fill="white"/>
<path d="M409.052 289.757H405.683C401.38 289.757 397.824 286.199 397.824 281.799V271.407C397.824 267.101 401.38 263.543 405.683 263.543H409.052C413.355 263.543 416.911 267.101 416.911 271.407V281.799C416.911 286.199 413.355 289.757 409.052 289.757Z" fill="white"/>
<path d="M433.75 289.757H428.137C424.394 289.757 421.4 286.668 421.4 283.016V281.799C421.4 278.148 424.394 275.059 428.137 275.059H433.75C437.493 275.059 440.487 278.148 440.487 281.799V283.016C440.487 286.668 437.493 289.757 433.75 289.757Z" fill="white"/>
<path d="M305.196 301.18H281.431C280.309 301.18 279.373 300.244 279.373 299.12C279.373 297.997 280.309 297.061 281.431 297.061H305.196C306.319 297.061 307.254 297.997 307.254 299.12C307.254 300.244 306.319 301.18 305.196 301.18Z" fill="white"/>
<path d="M309.686 309.139H276.939C275.816 309.139 274.881 308.203 274.881 307.079C274.881 305.956 275.816 305.02 276.939 305.02H309.686C310.808 305.02 311.744 305.956 311.744 307.079C311.744 308.203 310.808 309.139 309.686 309.139Z" fill="white"/>
<path fillRule="evenodd" clipRule="evenodd" d="M303.699 246.879C305.196 245.381 307.629 245.381 309.126 246.879L312.12 249.875C313.617 251.373 313.617 253.807 312.12 255.305C311.278 256.147 311.184 257.271 311.559 258.114C311.933 259.05 312.775 259.799 313.991 259.799C316.049 259.799 317.734 261.484 317.734 263.544V267.756C317.734 269.91 316.049 271.595 313.991 271.595C312.775 271.595 311.933 272.344 311.559 273.28C311.184 274.123 311.278 275.246 312.12 276.089C313.617 277.587 313.617 280.021 312.12 281.519L309.126 284.515C307.629 285.919 305.196 285.919 303.699 284.515C302.857 283.672 301.735 283.485 300.893 283.859C299.957 284.327 299.208 285.17 299.208 286.293C299.208 288.447 297.524 290.132 295.466 290.132H291.256C289.104 290.132 287.42 288.447 287.42 286.293C287.42 285.17 286.671 284.327 285.736 283.859C284.894 283.485 283.771 283.672 282.929 284.515C281.432 285.919 278.999 285.919 277.502 284.515L274.508 281.519C273.105 280.021 273.105 277.587 274.508 276.089C275.35 275.246 275.537 274.123 275.163 273.28C274.695 272.344 273.853 271.595 272.731 271.595C270.579 271.595 268.895 269.91 268.895 267.756V263.544C268.895 261.484 270.579 259.799 272.731 259.799C273.853 259.799 274.695 259.05 275.163 258.114C275.537 257.271 275.35 256.147 274.508 255.305C273.105 253.807 273.105 251.373 274.508 249.875L277.502 246.879C278.999 245.381 281.432 245.381 282.929 246.879C283.771 247.722 284.894 247.815 285.736 247.441C286.671 247.066 287.42 246.224 287.42 245.007C287.42 242.947 289.104 241.262 291.256 241.262H295.466C297.524 241.262 299.208 242.947 299.208 245.007C299.208 246.224 299.957 247.066 300.893 247.441C301.735 247.815 302.857 247.722 303.699 246.879ZM289.665 256.896C288.542 257.365 287.513 258.02 286.578 258.956C285.736 259.892 284.987 260.922 284.519 262.046C284.051 263.169 283.864 264.386 283.864 265.697C283.864 267.008 284.051 268.225 284.519 269.348C284.987 270.472 285.736 271.501 286.578 272.438C287.513 273.28 288.542 274.029 289.665 274.497C290.788 274.965 292.004 275.153 293.314 275.153C294.624 275.153 295.84 274.965 296.963 274.497C298.086 274.029 299.115 273.28 300.05 272.438C300.986 271.501 301.641 270.472 302.109 269.348C302.577 268.225 302.857 267.008 302.857 265.697C302.857 264.386 302.577 263.169 302.109 262.046C301.641 260.922 300.986 259.892 300.05 258.956C299.115 258.02 298.086 257.365 296.963 256.896C295.84 256.428 294.624 256.147 293.314 256.147C292.004 256.147 290.788 256.428 289.665 256.896Z" fill="white"/>
<g style="mix-blend-mode:screen">
<path d="M230.255 104.295H204.057C190.304 104.295 177.486 98.1158 168.972 87.3493L163.078 79.9533C160.271 76.3957 156.061 74.4296 151.57 74.4296H151.195V73.6807H151.57C156.341 73.6807 160.739 75.8339 163.639 79.4852L169.533 86.8812C177.954 97.4604 190.491 103.546 204.057 103.546H230.255V104.295Z" fill="#2B298E"/>
<path d="M235.773 100.174L229.598 103.919L235.773 107.664V100.174Z" fill="#2B298E"/>
<path d="M145.672 70.4033L151.847 74.0545L145.578 77.7994L145.672 70.4033Z" fill="#2B298E"/>
</g>
<path d="M209.859 212.426H207.24C204.339 212.426 201.533 211.209 199.474 209.15L195.451 205.124C193.58 203.251 190.96 202.222 188.247 202.222H180.855V201.473H188.247C191.147 201.473 193.954 202.596 196.012 204.656L200.036 208.681C201.907 210.554 204.526 211.677 207.24 211.677H209.859V212.426Z" fill="#2B298E"/>
<path d="M175.338 205.499L181.513 201.754L175.338 198.103V205.499Z" fill="#2B298E"/>
<path d="M215.384 215.705L209.209 211.96L215.384 208.309V215.705Z" fill="#2B298E"/>
<g style="mix-blend-mode:screen">
<path d="M181.133 303.425H166.631V302.676H181.133C187.027 302.676 192.547 300.336 196.758 296.216L207.33 285.637C211.634 281.331 217.435 278.896 223.516 278.896H224.545V279.645H223.516C217.622 279.645 212.008 281.986 207.798 286.199L197.319 296.685C192.922 301.085 187.214 303.425 181.133 303.425Z" fill="#2B298E"/>
<path d="M161.111 306.796L167.286 303.051L161.111 299.307V306.796Z" fill="#2B298E"/>
<path d="M230.161 283.017L223.893 279.272L230.161 275.527V283.017Z" fill="#2B298E"/>
</g>
<defs>
<radialGradient id="paint0_radial_1330_2727" cx="0" cy="0" r="1" gradientUnits="userSpaceOnUse" gradientTransform="translate(273.879 305.589) scale(164.085 164.19)">
<stop stop-color="#21202E"/>
<stop offset="1" stop-color="white"/>
</radialGradient>
<radialGradient id="paint1_radial_1330_2727" cx="0" cy="0" r="1" gradientUnits="userSpaceOnUse" gradientTransform="translate(233.391 305.589) scale(164.085 164.19)">
<stop stop-color="#21202E"/>
<stop offset="1" stop-color="white"/>
</radialGradient>
<linearGradient id="paint2_linear_1330_2727" x1="-245.03" y1="444.403" x2="-245.03" y2="3.37571" gradientUnits="userSpaceOnUse">
<stop stop-color="#ED1E79"/>
<stop offset="0.526" stop-color="#1B1464"/>
<stop offset="1" stop-color="#29ABE2"/>
</linearGradient>
<linearGradient id="paint3_linear_1330_2727" x1="133.629" y1="444.372" x2="133.629" y2="441.021" gradientUnits="userSpaceOnUse">
<stop stop-color="white"/>
<stop offset="1" stop-color="#922F2E"/>
</linearGradient>
<radialGradient id="paint4_radial_1330_2727" cx="0" cy="0" r="1" gradientUnits="userSpaceOnUse" gradientTransform="translate(212.826 10.1233) scale(82.7999 82.8528)">
<stop stop-color="#29ABE2"/>
<stop offset="1"/>
</radialGradient>
<radialGradient id="paint5_radial_1330_2727" cx="0" cy="0" r="1" gradientUnits="userSpaceOnUse" gradientTransform="translate(212.826 437.574) scale(82.7999 82.8527)">
<stop stop-color="#ED1E79"/>
<stop offset="1"/>
</radialGradient>
<linearGradient id="paint6_linear_1330_2727" x1="365.686" y1="196.29" x2="365.686" y2="178.427" gradientUnits="userSpaceOnUse">
<stop stop-color="white"/>
<stop offset="1" stop-color="#999999"/>
</linearGradient>
<linearGradient id="paint7_linear_1330_2727" x1="376.814" y1="172.441" x2="376.814" y2="164.995" gradientUnits="userSpaceOnUse">
<stop stop-color="#1B1464"/>
<stop offset="1" stop-color="#2E3192"/>
</linearGradient>
<linearGradient id="paint8_linear_1330_2727" x1="252.188" y1="157.193" x2="323.55" y2="52.4016" gradientUnits="userSpaceOnUse">
<stop/>
<stop offset="1" stop-color="#2E3192"/>
</linearGradient>
<linearGradient id="paint9_linear_1330_2727" x1="418.33" y1="364.774" x2="418.33" y2="346.911" gradientUnits="userSpaceOnUse">
<stop stop-color="white"/>
<stop offset="1" stop-color="#999999"/>
</linearGradient>
<linearGradient id="paint10_linear_1330_2727" x1="430.699" y1="342.907" x2="430.699" y2="335.464" gradientUnits="userSpaceOnUse">
<stop stop-color="#800806"/>
<stop offset="1" stop-color="#FF130D"/>
</linearGradient>
<linearGradient id="paint11_linear_1330_2727" x1="246.515" y1="326.17" x2="347.662" y2="221.401" gradientUnits="userSpaceOnUse">
<stop/>
<stop offset="1" stop-color="#F15A24"/>
</linearGradient>
<linearGradient id="paint12_linear_1330_2727" x1="152.885" y1="287.711" x2="152.885" y2="269.848" gradientUnits="userSpaceOnUse">
<stop stop-color="white"/>
<stop offset="1" stop-color="#999999"/>
</linearGradient>
<linearGradient id="paint13_linear_1330_2727" x1="141.035" y1="265.836" x2="141.035" y2="258.392" gradientUnits="userSpaceOnUse">
<stop stop-color="#800806"/>
<stop offset="1" stop-color="#FF130D"/>
</linearGradient>
<linearGradient id="paint14_linear_1330_2727" x1="16.411" y1="247.534" x2="87.7721" y2="142.743" gradientUnits="userSpaceOnUse">
<stop/>
<stop offset="1" stop-color="#F15A24"/>
</linearGradient>
</defs>
</svg>
