<?xml version="1.0" encoding="UTF-8"?>
<svg version="1.1" xmlns="http://www.w3.org/2000/svg" width="466" height="285">
<path d="M0 0 C93.39 0 186.78 0 283 0 C283 6.27 283 12.54 283 19 C189.61 19 96.22 19 0 19 C0 12.73 0 6.46 0 0 Z " fill="#121212" transform="translate(90,170)"/>
<path d="M0 0 C55.11 0 110.22 0 167 0 C167 6.27 167 12.54 167 19 C111.89 19 56.78 19 0 19 C0 12.73 0 6.46 0 0 Z " fill="#121212" transform="translate(148,112)"/>
<path d="M0 0 C17.16 0 34.32 0 52 0 C52 5.94 52 11.88 52 18 C51 19 51 19 48.94358826 19.12025452 C48.03979935 19.11803391 47.13601044 19.11581329 46.20483398 19.11352539 C45.18385117 19.11344986 44.16286835 19.11337433 43.11094666 19.11329651 C42.0005452 19.10813522 40.89014374 19.10297394 39.74609375 19.09765625 C38.61551041 19.0962413 37.48492706 19.09482635 36.32008362 19.09336853 C32.69252935 19.08775019 29.06503576 19.07519458 25.4375 19.0625 C22.98502693 19.05748736 20.5325529 19.05292405 18.08007812 19.04882812 C12.05336187 19.0377748 6.02669124 19.02049788 0 19 C0 12.73 0 6.46 0 0 Z " fill="#161616" transform="translate(206,55)"/>
<path d="M0 0 C3.49246014 0.18443997 4.76163739 0.7566455 7.23828125 3.28515625 C8.26501953 4.65994141 8.26501953 4.65994141 9.3125 6.0625 C10.00988281 6.98160156 10.70726562 7.90070313 11.42578125 8.84765625 C11.94527344 9.55792969 12.46476562 10.26820313 13 11 C13.33 7.37 13.66 3.74 14 0 C15.65 0 17.3 0 19 0 C19 7.59 19 15.18 19 23 C13.41120602 21.8822412 12.91972815 21.26539871 9.6875 16.9375 C8.99011719 16.01839844 8.29273438 15.09929687 7.57421875 14.15234375 C7.05472656 13.44207031 6.53523438 12.73179687 6 12 C5.67 15.63 5.34 19.26 5 23 C3.35 23 1.7 23 0 23 C-1.62200515 21.37799485 -1.1299075 19.57976969 -1.1328125 17.34375 C-1.13410156 16.40402344 -1.13539063 15.46429688 -1.13671875 14.49609375 C-1.13285156 13.50738281 -1.12898438 12.51867187 -1.125 11.5 C-1.12886719 10.51128906 -1.13273437 9.52257812 -1.13671875 8.50390625 C-1.13542969 7.56417969 -1.13414062 6.62445313 -1.1328125 5.65625 C-1.13168457 4.78806641 -1.13055664 3.91988281 -1.12939453 3.02539062 C-1 1 -1 1 0 0 Z " fill="#414141" transform="translate(313,228)"/>
<path d="M0 0 C1.65 0 3.3 0 5 0 C6.58203125 1.75 6.58203125 1.75 7.8125 4 C8.23144531 4.7425 8.65039062 5.485 9.08203125 6.25 C9.38496094 6.8275 9.68789063 7.405 10 8 C12.12038635 5.38485683 14.13091744 2.80362384 16 0 C17.65 0 19.3 0 21 0 C21 7.59 21 15.18 21 23 C19.35 22.67 17.7 22.34 16 22 C15.67 18.7 15.34 15.4 15 12 C14.38125 12.825 13.7625 13.65 13.125 14.5 C12.073125 15.7375 12.073125 15.7375 11 17 C10.34 17 9.68 17 9 17 C7.61061923 15.03852126 6.2739589 13.03833424 5 11 C4.67 14.96 4.34 18.92 4 23 C2.68 23 1.36 23 0 23 C0 15.41 0 7.82 0 0 Z " fill="#404040" transform="translate(378,228)"/>
<path d="M0 0 C3.47060168 2.06759249 5.77725393 4.10944433 7 8 C7.30399283 12.25589957 7.33486745 15.35176961 5 19 C4.34 19 3.68 19 3 19 C3 19.66 3 20.32 3 21 C-0.10479987 23.06986658 -3.18106469 23.55815623 -6.89453125 23.42578125 C-10.20409951 22.75649936 -12.2877004 21.37366016 -14.703125 19.046875 C-17.28693931 14.96880662 -17.01962357 10.58830607 -16 6 C-11.48079005 0.05367112 -7.15506534 -0.90366742 0 0 Z M-9.375 6.5625 C-11.34359806 9.01459258 -11.34359806 9.01459258 -10.9375 12.625 C-10.3249155 16.25516924 -10.3249155 16.25516924 -7 18 C-4.20476326 18.34940459 -2.6351646 18.37233787 -0.1875 16.9375 C1.67036623 13.90624457 1.37133265 11.46577141 1 8 C-0.04374022 5.95548981 -0.04374022 5.95548981 -2 5 C-5.28653916 4.41010836 -6.57382999 4.71962499 -9.375 6.5625 Z " fill="#4C4C4C" transform="translate(295,228)"/>
<path d="M0 0 C3.63467079 1.62400184 4.77408696 2.66113044 7 6 C7.68991883 10.28545734 8.33757742 15.11262082 5.7265625 18.796875 C1.1098804 22.62534308 -2.1122288 23.30453989 -8 23 C-10.4375 22 -10.4375 22 -12 21 C-12 20.34 -12 19.68 -12 19 C-12.66 19 -13.32 19 -14 19 C-16.34728069 15.33237392 -16.4430704 12.28301385 -16 8 C-11.95099768 0.60009921 -8.0373676 -0.93227814 0 0 Z M-8.8125 6.0625 C-10.67036623 9.09375543 -10.37133265 11.53422859 -10 15 C-9.10242444 17.14780077 -9.10242444 17.14780077 -7 18 C-3.42243314 18.00082535 -3.42243314 18.00082535 0 17 C2.36139302 14.10538099 2.36139302 14.10538099 1.8125 10.4375 C1.35160238 6.74174248 1.35160238 6.74174248 -2 5 C-4.79523674 4.65059541 -6.3648354 4.62766213 -8.8125 6.0625 Z " fill="#4B4B4B" transform="translate(359,228)"/>
<path d="M0 0 C5.61 0 11.22 0 17 0 C17 1.65 17 3.3 17 5 C13.04 5 9.08 5 5 5 C5 6.32 5 7.64 5 9 C8.63 9 12.26 9 16 9 C15.67 10.65 15.34 12.3 15 14 C11.7 14 8.4 14 5 14 C5 15.32 5 16.64 5 18 C8.96 18 12.92 18 17 18 C17 19.65 17 21.3 17 23 C14.35409986 23.02684679 11.70846904 23.04676357 9.0625 23.0625 C8.30775391 23.07087891 7.55300781 23.07925781 6.77539062 23.08789062 C4.85005687 23.09652441 2.92464419 23.05224333 1 23 C0 22 0 22 -0.11352539 19.86694336 C-0.10828857 18.95050049 -0.10305176 18.03405762 -0.09765625 17.08984375 C-0.09443359 16.10048828 -0.09121094 15.11113281 -0.08789062 14.09179688 C-0.07951172 13.05087891 -0.07113281 12.00996094 -0.0625 10.9375 C-0.05798828 9.89271484 -0.05347656 8.84792969 -0.04882812 7.77148438 C-0.03699927 5.18096546 -0.01906319 2.59047578 0 0 Z " fill="#9E9E9E" transform="translate(222,228)"/>
<path d="M0 0 C5.61 0 11.22 0 17 0 C17 1.65 17 3.3 17 5 C13.04 5 9.08 5 5 5 C5 6.32 5 7.64 5 9 C8.3 9 11.6 9 15 9 C15.33 10.32 15.66 11.64 16 13 C15 14 15 14 12.71484375 14.09765625 C11.34005859 14.08025391 11.34005859 14.08025391 9.9375 14.0625 C9.01839844 14.05347656 8.09929687 14.04445312 7.15234375 14.03515625 C6.44207031 14.02355469 5.73179687 14.01195312 5 14 C5 15.32 5 16.64 5 18 C8.96 18 12.92 18 17 18 C17 19.65 17 21.3 17 23 C11.39 23 5.78 23 0 23 C0 15.41 0 7.82 0 0 Z " fill="#050505" transform="translate(124,228)"/>
<path d="M0 0 C0.7425 0.495 0.7425 0.495 1.5 1 C1.1875 2.9375 1.1875 2.9375 0.5 5 C-2.97823115 6.15941038 -4.95895578 5.70820884 -8.5 5 C-6.49014488 7.26681818 -6.49014488 7.26681818 -3 8.4375 C0.5 10 0.5 10 2.5 13 C2.35978632 16.3651283 2.10414348 18.30291137 -0.125 20.875 C-3.50089791 22.47410954 -5.79967436 22.44659103 -9.5 22 C-12.9375 20 -12.9375 20 -15.5 18 C-14.51 16.515 -14.51 16.515 -13.5 15 C-10.2 15.33 -6.9 15.66 -3.5 16 C-3.17 15.34 -2.84 14.68 -2.5 14 C-3.42232422 13.83564453 -3.42232422 13.83564453 -4.36328125 13.66796875 C-5.17152344 13.50941406 -5.97976562 13.35085937 -6.8125 13.1875 C-8.01326172 12.96126953 -8.01326172 12.96126953 -9.23828125 12.73046875 C-11.79874316 11.90351473 -12.89192273 11.14240675 -14.5 9 C-15.25336323 2.97309417 -15.25336323 2.97309417 -13 0.0625 C-8.66953041 -1.77794957 -4.36198465 -1.74479386 0 0 Z " fill="#3E3E3E" transform="translate(192.5,229)"/>
<path d="M0 0 C0.99 0.66 1.98 1.32 3 2 C2.625 3.9375 2.625 3.9375 2 6 C-1.20062687 7.60031344 -3.72271806 6.03173691 -7 5 C-7 5.99 -7 6.98 -7 8 C-6.37351563 8.19335938 -5.74703125 8.38671875 -5.1015625 8.5859375 C-4.28429687 8.84632813 -3.46703125 9.10671875 -2.625 9.375 C-1.81289062 9.63023437 -1.00078125 9.88546875 -0.1640625 10.1484375 C2 11 2 11 4 13 C4.55979644 18.26208651 4.55979644 18.26208651 2.625 20.8125 C-0.92100305 23.40380992 -3.64832179 23.29502903 -8 23 C-10.9375 21.5 -10.9375 21.5 -13 20 C-12.67 18.68 -12.34 17.36 -12 16 C-8.7 16.33 -5.4 16.66 -2 17 C-1.67 16.34 -1.34 15.68 -1 15 C-2.2375 14.731875 -3.475 14.46375 -4.75 14.1875 C-10.72807018 12.6505848 -10.72807018 12.6505848 -13 10 C-13.60285455 6.45822952 -13.42799134 4.70711612 -11.5625 1.625 C-7.85660314 -0.72508094 -4.28644991 -0.67888525 0 0 Z " fill="#464646" transform="translate(164,228)"/>
<path d="M0 0 C1.2065625 0.0309375 1.2065625 0.0309375 2.4375 0.0625 C3.9466441 3.32919046 5.44321701 6.60148816 6.9375 9.875 C7.36675781 10.80376953 7.79601562 11.73253906 8.23828125 12.68945312 C8.84736328 14.0284668 8.84736328 14.0284668 9.46875 15.39453125 C9.84580078 16.21671143 10.22285156 17.0388916 10.61132812 17.88598633 C11.4375 20.0625 11.4375 20.0625 11.4375 23.0625 C9.7875 23.0625 8.1375 23.0625 6.4375 23.0625 C5.7775 21.0825 5.1175 19.1025 4.4375 17.0625 C1.4675 17.3925 -1.5025 17.7225 -4.5625 18.0625 C-5.5525 20.5375 -5.5525 20.5375 -6.5625 23.0625 C-8.2125 23.0625 -9.8625 23.0625 -11.5625 23.0625 C-10.85635121 18.15868898 -8.96621082 13.846237 -7.0625 9.3125 C-6.74152344 8.53261719 -6.42054687 7.75273437 -6.08984375 6.94921875 C-3.23417346 0.07888228 -3.23417346 0.07888228 0 0 Z M-0.5625 7.0625 C-1.2225 9.0425 -1.8825 11.0225 -2.5625 13.0625 C-0.9125 13.0625 0.7375 13.0625 2.4375 13.0625 C1.7775 11.0825 1.1175 9.1025 0.4375 7.0625 C0.1075 7.0625 -0.2225 7.0625 -0.5625 7.0625 Z " fill="#454545" transform="translate(44.5625,227.9375)"/>
<path d="M0 0 C3.0625 1.5 3.0625 1.5 5 3 C4.34 4.32 3.68 5.64 3 7 C2.30132812 6.90460938 1.60265625 6.80921875 0.8828125 6.7109375 C-0.02726562 6.60007813 -0.93734375 6.48921875 -1.875 6.375 C-2.77992187 6.25898438 -3.68484375 6.14296875 -4.6171875 6.0234375 C-5.40351562 6.01570312 -6.18984375 6.00796875 -7 6 C-9.37994368 7.94332332 -9.37994368 7.94332332 -9.25 11.5 C-9.37994368 15.05667668 -9.37994368 15.05667668 -7 17 C-4.55036823 17.02253443 -4.55036823 17.02253443 -1.875 16.625 C-0.96492188 16.51414063 -0.05484375 16.40328125 0.8828125 16.2890625 C1.58148438 16.19367188 2.28015625 16.09828125 3 16 C3.66 16.99 4.32 17.98 5 19 C1.77702775 21.51549054 -0.41591337 22.91655905 -4.5 23.5 C-9.25930086 22.82009988 -12.38696372 21.05295527 -15.375 17.25 C-16.33334998 13.79994008 -16.58048115 10.51785566 -16 7 C-11.81696721 0.36484454 -7.43910916 -0.89894664 0 0 Z " fill="#4B4B4B" transform="translate(109,228)"/>
<path d="M0 0 C2.2734375 1.02734375 2.2734375 1.02734375 4 2 C4 3.32 4 4.64 4 6 C0.17498723 7.3770046 -3.06132308 6.65644615 -7 6 C-7.66 6 -8.32 6 -9 6 C-10.13702282 10.74286564 -10.13702282 10.74286564 -8.84375 15.25 C-7.12208925 17.25599919 -7.12208925 17.25599919 -4.51953125 17.171875 C-3.62621094 17.03265625 -2.73289062 16.8934375 -1.8125 16.75 C-0.91144531 16.62109375 -0.01039063 16.4921875 0.91796875 16.359375 C1.60503906 16.24078125 2.29210937 16.1221875 3 16 C3.33 17.32 3.66 18.64 4 20 C1.36425127 22.63574873 -0.09442452 23.01066083 -3.875 23.4375 C-8.17744952 23.26090692 -10.74152479 21.87056149 -14 19 C-16.47033013 15.24080197 -16.29156343 11.48461925 -15.65625 7.16015625 C-14.79186593 4.31489201 -13.31835661 2.51074497 -10.8828125 0.8046875 C-7.34299355 -0.70818118 -3.75139693 -0.64796856 0 0 Z " fill="#4F4F4F" transform="translate(265,228)"/>
<path d="M0 0 C2.5625 1.5 2.5625 1.5 4 3 C3.34 4.32 2.68 5.64 2 7 C1.06027344 6.87431641 1.06027344 6.87431641 0.1015625 6.74609375 C-1.12433594 6.59333984 -1.12433594 6.59333984 -2.375 6.4375 C-3.59316406 6.28087891 -3.59316406 6.28087891 -4.8359375 6.12109375 C-7.04899186 5.81762672 -7.04899186 5.81762672 -9 7 C-9.85056945 10.55692677 -10.16909807 12.49270578 -9 16 C-4.6835078 16.76173392 -1.25566547 17.16063604 3 16 C3.33 16.99 3.66 17.98 4 19 C1.22855626 21.89741846 -0.1356046 22.91688506 -4.25 23.3125 C-8.66046321 22.9449614 -10.60030631 21.76719254 -14 19 C-16.83921809 14.74117287 -16.99048886 10.99113527 -16 6 C-12.27140809 0.06920849 -6.62931815 -1.34378071 0 0 Z " fill="#3F3F3F" transform="translate(80,228)"/>
<path d="M0 0 C1.98 0 3.96 0 6 0 C6.9765625 1.79036458 7.953125 3.58072917 8.9296875 5.37109375 C9.91410024 7.16618315 9.91410024 7.16618315 12 8 C12.28875 7.236875 12.5775 6.47375 12.875 5.6875 C14 3 14 3 16 0 C18.625 -0.1875 18.625 -0.1875 21 0 C21 3.81968086 19.7507668 5.03412819 17.5625 8.125 C14.1442395 13.30063233 13.10094231 16.84251909 13 23 C11.35 23 9.7 23 8 23 C7.96261719 22.33613281 7.92523438 21.67226562 7.88671875 20.98828125 C7.50473895 15.85776831 7.07822952 12.28275411 4 8 C4 7.34 4 6.68 4 6 C3.34 6 2.68 6 2 6 C1.34 4.02 0.68 2.04 0 0 Z " fill="#434343" transform="translate(409,228)"/>
<path d="M0 0 C4.95 0 9.9 0 15 0 C15 0.99 15 1.98 15 3 C11.04 3 7.08 3 3 3 C3 4.98 3 6.96 3 9 C6.63 9 10.26 9 14 9 C14 9.66 14 10.32 14 11 C10.37 11 6.74 11 3 11 C3.33 12.98 3.66 14.96 4 17 C7.63 17.33 11.26 17.66 15 18 C15 18.66 15 19.32 15 20 C10.05 20 5.1 20 0 20 C0 13.4 0 6.8 0 0 Z " fill="#030303" transform="translate(223,229)"/>
<path d="M0 0 C1.65 0 3.3 0 5 0 C6.51171875 1.75 6.51171875 1.75 7.6875 4 C8.82122346 6.19652143 8.82122346 6.19652143 10 8 C10.66 8 11.32 8 12 8 C12 8.66 12 9.32 12 10 C11.01 10.33 10.02 10.66 9 11 C8.01 12.485 8.01 12.485 7 14 C6.34 13.01 5.68 12.02 5 11 C4.67 14.96 4.34 18.92 4 23 C2.68 23 1.36 23 0 23 C0 15.41 0 7.82 0 0 Z " fill="#4C4C4C" transform="translate(378,228)"/>
<path d="M0 0 C5.61 0 11.22 0 17 0 C17 1.65 17 3.3 17 5 C13.04 5 9.08 5 5 5 C5 6.32 5 7.64 5 9 C8.3 9 11.6 9 15 9 C15.33 10.32 15.66 11.64 16 13 C15 14 15 14 12.71484375 14.09765625 C11.34005859 14.08025391 11.34005859 14.08025391 9.9375 14.0625 C9.01839844 14.05347656 8.09929687 14.04445312 7.15234375 14.03515625 C6.44207031 14.02355469 5.73179687 14.01195312 5 14 C5 15.32 5 16.64 5 18 C8.96 18 12.92 18 17 18 C17 19.65 17 21.3 17 23 C11.39 23 5.78 23 0 23 C0 15.41 0 7.82 0 0 Z M1 1 C1 7.93 1 14.86 1 22 C5.95 22 10.9 22 16 22 C16 21.01 16 20.02 16 19 C12.04 19 8.08 19 4 19 C4 17.02 4 15.04 4 13 C7.3 12.67 10.6 12.34 14 12 C14 11.34 14 10.68 14 10 C10.7 10 7.4 10 4 10 C4 8.02 4 6.04 4 4 C7.96 4 11.92 4 16 4 C16 3.01 16 2.02 16 1 C11.05 1 6.1 1 1 1 Z " fill="#B0B0B0" transform="translate(124,228)"/>
<path d="M0 0 C2.5625 1.5 2.5625 1.5 4 3 C3.34 4.32 2.68 5.64 2 7 C1.37351562 6.9278125 0.74703125 6.855625 0.1015625 6.78125 C-0.71570313 6.6884375 -1.53296875 6.595625 -2.375 6.5 C-3.18710938 6.4071875 -3.99921875 6.314375 -4.8359375 6.21875 C-6.96912825 5.96647649 -6.96912825 5.96647649 -9 6 C-9 5.34 -9 4.68 -9 4 C-9.61875 4.495 -10.2375 4.99 -10.875 5.5 C-13 7 -13 7 -15 7 C-15 9.97 -15 12.94 -15 16 C-15.33 16 -15.66 16 -16 16 C-17.03714978 7.66987637 -17.03714978 7.66987637 -14.7578125 4 C-10.3574678 -0.21784192 -5.93957287 -1.20396747 0 0 Z " fill="#606060" transform="translate(80,228)"/>
<path d="M0 0 C0.25 2.3125 0.25 2.3125 0 5 C-2.31533882 7.68579303 -3.84964317 7.9805093 -7.375 8.4375 C-11.57472447 7.9306367 -13.69968692 6.57585411 -17 4 C-16.34 3.01 -15.68 2.02 -15 1 C-14.31292969 1.09539062 -13.62585938 1.19078125 -12.91796875 1.2890625 C-12.01691406 1.39992187 -11.11585938 1.51078125 -10.1875 1.625 C-8.84751953 1.79902344 -8.84751953 1.79902344 -7.48046875 1.9765625 C-4.29839664 2.00662932 -3.08053047 0 0 0 Z " fill="#484848" transform="translate(194,243)"/>
<path d="M0 0 C0.495 0.33 0.99 0.66 1.5 1 C1.1875 2.9375 1.1875 2.9375 0.5 5 C-2.97823115 6.15941038 -4.95895578 5.70820884 -8.5 5 C-7.51 6.485 -7.51 6.485 -6.5 8 C-8.375 7.75 -8.375 7.75 -10.5 7 C-11.75 4.9375 -11.75 4.9375 -12.5 3 C-12.83 4.98 -13.16 6.96 -13.5 9 C-13.83 9 -14.16 9 -14.5 9 C-14.98137536 2.6217765 -14.98137536 2.6217765 -13 0.0625 C-8.66953041 -1.77794957 -4.36198465 -1.74479386 0 0 Z " fill="#757575" transform="translate(192.5,229)"/>
<path d="M0 0 C1.98 0 3.96 0 6 0 C6.9765625 1.79036458 7.953125 3.58072917 8.9296875 5.37109375 C9.91410024 7.16618315 9.91410024 7.16618315 12 8 C12 8.66 12 9.32 12 10 C11.01 10 10.02 10 9 10 C8.01 11.485 8.01 11.485 7 13 C4 8.25 4 8.25 4 6 C3.34 6 2.68 6 2 6 C1.34 4.02 0.68 2.04 0 0 Z " fill="#4B4B4B" transform="translate(409,228)"/>
<path d="M0 0 C0.99 0.66 1.98 1.32 3 2 C2.625 3.9375 2.625 3.9375 2 6 C-1.20062687 7.60031344 -3.72271806 6.03173691 -7 5 C-6.67 4.01 -6.34 3.02 -6 2 C-7.99863756 2.57944932 -7.99863756 2.57944932 -10 4 C-11.29231642 7.04199472 -11.29231642 7.04199472 -12 10 C-12.33 10 -12.66 10 -13 10 C-13.31068741 6.58243849 -13.3625104 4.59893023 -11.5625 1.625 C-7.85660314 -0.72508094 -4.28644991 -0.67888525 0 0 Z " fill="#767676" transform="translate(164,228)"/>
<path d="M0 0 C0 4.95 0 9.9 0 15 C-0.99 15 -1.98 15 -3 15 C-3 10.38 -3 5.76 -3 1 C-1 0 -1 0 0 0 Z " fill="#0B0B0B" transform="translate(381,235)"/>
<path d="M0 0 C3.70129644 0.38961015 5.61879622 1.11749016 8 4 C7.67 4.66 7.34 5.32 7 6 C6.566875 5.525625 6.13375 5.05125 5.6875 4.5625 C3.97690387 2.76313043 3.97690387 2.76313043 1 2 C0.67 8.6 0.34 15.2 0 22 C-0.33 22 -0.66 22 -1 22 C-1.02887814 18.52085059 -1.04675687 15.04173169 -1.0625 11.5625 C-1.07087891 10.56927734 -1.07925781 9.57605469 -1.08789062 8.55273438 C-1.09111328 7.60849609 -1.09433594 6.66425781 -1.09765625 5.69140625 C-1.10289307 4.81685791 -1.10812988 3.94230957 -1.11352539 3.04125977 C-1 1 -1 1 0 0 Z " fill="#BCBCBC" transform="translate(313,228)"/>
<path d="M0 0 C5 7.5 5 7.5 5 12 C3.35 12 1.7 12 0 12 C-0.66 10.02 -1.32 8.04 -2 6 C-1.01 6 -0.02 6 1 6 C0.67 4.02 0.34 2.04 0 0 Z " fill="#686868" transform="translate(51,239)"/>
<path d="M0 0 C-0.66 1.32 -1.32 2.64 -2 4 C-5.3 3.34 -8.6 2.68 -12 2 C-12 1.67 -12 1.34 -12 1 C-10.56496445 0.63597631 -9.12683494 0.28413409 -7.6875 -0.0625 C-6.88699219 -0.25972656 -6.08648437 -0.45695313 -5.26171875 -0.66015625 C-3 -1 -3 -1 0 0 Z " fill="#808080" transform="translate(114,231)"/>
<path d="M0 0 C0 0.99 0 1.98 0 3 C-1.98 3.99 -1.98 3.99 -4 5 C-4.66 3.35 -5.32 1.7 -6 0 C-3.50907189 -1.24546405 -2.58919267 -0.7767578 0 0 Z " fill="#636363" transform="translate(113,245)"/>
<path d="M0 0 C1.65 0 3.3 0 5 0 C5 3.57575896 3.91159393 5.05295935 2 8 C1.34 6.68 0.68 5.36 0 4 C0.66 3.01 1.32 2.02 2 1 C1.34 0.67 0.68 0.34 0 0 Z " fill="#848484" transform="translate(425,228)"/>
<path d="M0 0 C0.99 0 1.98 0 3 0 C3 1.32 3 2.64 3 4 C-0.21428571 7 -0.21428571 7 -3 7 C-1.125 2.25 -1.125 2.25 0 0 Z " fill="#535353" transform="translate(424,229)"/>
<path d="M0 0 C1.98 0 3.96 0 6 0 C6 0.66 6 1.32 6 2 C5.01 2.495 5.01 2.495 4 3 C4 3.99 4 4.98 4 6 C3.34 6 2.68 6 2 6 C1.34 4.02 0.68 2.04 0 0 Z " fill="#8D8D8D" transform="translate(409,228)"/>
</svg>
